<svg width="21" height="22" viewBox="0 0 21 22" fill="none" xmlns="http://www.w3.org/2000/svg">
<path d="M2.42857 4.5715C2.04969 4.5715 1.68633 4.72201 1.41842 4.98992C1.15051 5.25783 1 5.62119 1 6.00007V18.8572C1 19.2361 1.15051 19.5995 1.41842 19.8674C1.68633 20.1353 2.04969 20.2858 2.42857 20.2858H18.1429C18.5217 20.2858 18.8851 20.1353 19.153 19.8674C19.4209 19.5995 19.5714 19.2361 19.5714 18.8572V6.00007C19.5714 5.62119 19.4209 5.25783 19.153 4.98992C18.8851 4.72201 18.5217 4.5715 18.1429 4.5715H15.2857M1 10.2858H19.5714M5.28571 1.71436V7.42864M15.2857 1.71436V7.42864M5.28571 4.5715H12.4286" stroke="#252A27" stroke-width="1.6" stroke-linecap="round" stroke-linejoin="round"/>
</svg>
