<svg viewBox="0 0 21 22" fill="none" xmlns="http://www.w3.org/2000/svg">
<path d="M19.5714 14.2286L14.1571 7.08578C14.0243 6.95189 13.8663 6.84561 13.6923 6.77308C13.5182 6.70056 13.3314 6.66321 13.1429 6.66321C12.9543 6.66321 12.7675 6.70056 12.5935 6.77308C12.4194 6.84561 12.2614 6.95189 12.1286 7.08578L1 20.2858H19.5714M6.98571 13.1429L9.08571 14.5715C9.32766 14.7438 9.61728 14.8363 9.91429 14.8363C10.2113 14.8363 10.5009 14.7438 10.7429 14.5715L12.0143 13.6144C12.2616 13.4289 12.5623 13.3286 12.8714 13.3286C13.1805 13.3286 13.4813 13.4289 13.7286 13.6144L15 14.5715C15.2406 14.7406 15.5274 14.8313 15.8214 14.8313C16.1154 14.8313 16.4023 14.7406 16.6429 14.5715L18.7571 13.1429M8.14286 5.28578C8.14286 7.25823 6.54387 8.85721 4.57143 8.85721C2.59898 8.85721 1 7.25823 1 5.28578C1 3.31334 2.59898 1.71436 4.57143 1.71436C6.54387 1.71436 8.14286 3.31334 8.14286 5.28578Z" stroke="#252A27" stroke-width="1.6" stroke-linecap="round" stroke-linejoin="round"/>
</svg>
