<svg  viewBox="0 0 1208 121" fill="none" xmlns="http://www.w3.org/2000/svg">
<line x1="4.56674" y1="4.18717" x2="1193.28" y2="4.18717" stroke="#252A27" stroke-width="7.54046" stroke-linecap="round"/>
<path d="M62.1425 30.0775L103.787 92.3719H20.498L62.1425 30.0775Z" stroke="#252A27" stroke-width="7.54046"/>
<path d="M110.708 42.7904L94.1649 21.9514L127.251 21.9514L110.708 42.7904Z" fill="black" stroke="#252A27" stroke-width="7.54046"/>
<path d="M207.839 42.7904L191.296 21.9514L224.382 21.9514L207.839 42.7904Z" fill="black" stroke="#252A27" stroke-width="7.54046"/>
<path d="M304.97 42.7904L288.427 21.9514L321.513 21.9514L304.97 42.7904Z" fill="black" stroke="#252A27" stroke-width="7.54046"/>
<path d="M402.102 42.7904L385.559 21.9514L418.645 21.9514L402.102 42.7904Z" fill="black" stroke="#252A27" stroke-width="7.54046"/>
<path d="M499.234 42.7904L482.691 21.9514L515.778 21.9514L499.234 42.7904Z" fill="black" stroke="#252A27" stroke-width="7.54046"/>
<path d="M596.365 42.7904L579.822 21.9514L612.909 21.9514L596.365 42.7904Z" fill="black" stroke="#252A27" stroke-width="7.54046"/>
<path d="M693.496 42.7904L676.953 21.9514L710.039 21.9514L693.496 42.7904Z" fill="black" stroke="#252A27" stroke-width="7.54046"/>
<path d="M790.628 42.7904L774.085 21.9514L807.171 21.9514L790.628 42.7904Z" fill="black" stroke="#252A27" stroke-width="7.54046"/>
<path d="M887.759 42.7904L871.216 21.9514L904.303 21.9514L887.759 42.7904Z" fill="black" stroke="#252A27" stroke-width="7.54046"/>
<path d="M984.89 42.7904L968.347 21.9514L1001.43 21.9514L984.89 42.7904Z" fill="black" stroke="#252A27" stroke-width="7.54046"/>
<path d="M1082.02 42.7904L1065.48 21.9514L1098.57 21.9514L1082.02 42.7904Z" fill="black" stroke="#252A27" stroke-width="7.54046"/>
<path d="M1179.15 42.7904L1162.61 21.9514L1195.7 21.9514L1179.15 42.7904Z" fill="black" stroke="#252A27" stroke-width="7.54046"/>
<path d="M159.274 30.0775L200.918 92.3719H117.629L159.274 30.0775Z" stroke="#252A27" stroke-width="7.54046"/>
<path d="M256.405 30.0775L298.05 92.3719H214.761L256.405 30.0775Z" stroke="#252A27" stroke-width="7.54046"/>
<path d="M353.536 30.0775L395.181 92.3719H311.892L353.536 30.0775Z" stroke="#252A27" stroke-width="7.54046"/>
<path d="M450.668 30.0775L492.313 92.3719H409.024L450.668 30.0775Z" stroke="#252A27" stroke-width="7.54046"/>
<path d="M547.799 30.0775L589.444 92.3719H506.155L547.799 30.0775Z" stroke="#252A27" stroke-width="7.54046"/>
<path d="M644.93 30.0775L686.575 92.3719H603.286L644.93 30.0775Z" stroke="#252A27" stroke-width="7.54046"/>
<path d="M742.062 30.0775L783.707 92.3719H700.418L742.062 30.0775Z" stroke="#252A27" stroke-width="7.54046"/>
<path d="M839.193 30.0775L880.837 92.3719H797.548L839.193 30.0775Z" stroke="#252A27" stroke-width="7.54046"/>
<path d="M936.324 30.0775L977.969 92.3719H894.68L936.324 30.0775Z" stroke="#252A27" stroke-width="7.54046"/>
<path d="M1033.46 30.0775L1075.1 92.3719H991.812L1033.46 30.0775Z" stroke="#252A27" stroke-width="7.54046"/>
<path d="M1130.59 30.0775L1172.23 92.3719H1088.94L1130.59 30.0775Z" stroke="#252A27" stroke-width="7.54046"/>
</svg>
