<svg width="25" height="25" viewBox="0 0 25 25" fill="none" xmlns="http://www.w3.org/2000/svg">
<path d="M21.5371 6.14286H14.68C13.7707 6.14286 12.8986 6.50408 12.2556 7.14706C11.6127 7.79004 11.2514 8.66211 11.2514 9.57143C11.2514 10.4807 11.6127 11.3528 12.2556 11.9958C12.8986 12.6388 13.7707 13 14.68 13C15.1347 13 15.5707 13.1806 15.8922 13.5021C16.2137 13.8236 16.3943 14.2596 16.3943 14.7143V22.4286M1.13714 13.8571H5.28571C6.19503 13.8571 7.0671 14.2184 7.71008 14.8613C8.35306 15.5043 8.71429 16.3764 8.71429 17.2857V22.7543M23.2857 12.1429C23.2857 18.2969 18.2969 23.2857 12.1429 23.2857C5.98883 23.2857 1 18.2969 1 12.1429C1 5.98883 5.98883 1 12.1429 1C18.2969 1 23.2857 5.98883 23.2857 12.1429Z" stroke="#ACAEAD" stroke-width="2" stroke-linecap="round" stroke-linejoin="round"/>
</svg>
