<svg viewBox="0 0 40 40" fill="none" xmlns="http://www.w3.org/2000/svg">
<path d="M35.8663 16.2597H34.5238V16.1905H19.5238V22.8572H28.943C27.5688 26.738 23.8763 29.5238 19.5238 29.5238C14.0013 29.5238 9.52381 25.0463 9.52381 19.5238C9.52381 14.0013 14.0013 9.52384 19.5238 9.52384C22.073 9.52384 24.3921 10.4855 26.158 12.0563L30.8721 7.34218C27.8955 4.56801 23.9138 2.85718 19.5238 2.85718C10.3196 2.85718 2.85714 10.3197 2.85714 19.5238C2.85714 28.728 10.3196 36.1905 19.5238 36.1905C28.728 36.1905 36.1905 28.728 36.1905 19.5238C36.1905 18.4063 36.0755 17.3155 35.8663 16.2597Z" fill="#FFC107"/>
<path d="M4.77888 11.7663L10.2547 15.7822C11.7364 12.1138 15.3247 9.52384 19.5239 9.52384C22.073 9.52384 24.3922 10.4855 26.158 12.0563L30.8722 7.34218C27.8955 4.56801 23.9139 2.85718 19.5239 2.85718C13.1222 2.85718 7.57054 6.47134 4.77888 11.7663Z" fill="#FF3D00"/>
<path d="M19.5239 36.1904C23.8289 36.1904 27.7406 34.5429 30.6981 31.8638L25.5398 27.4988C23.8102 28.8141 21.6968 29.5255 19.5239 29.5238C15.189 29.5238 11.5081 26.7596 10.1215 22.9021L4.68645 27.0896C7.44479 32.4871 13.0465 36.1904 19.5239 36.1904Z" fill="#4CAF50"/>
<path d="M35.8664 16.2598H34.5239V16.1907H19.5239V22.8573H28.9431C28.2858 24.7044 27.1017 26.3183 25.5373 27.4998L25.5398 27.4982L30.6981 31.8632C30.3331 32.1948 36.1906 27.8573 36.1906 19.524C36.1906 18.4065 36.0756 17.3157 35.8664 16.2598Z" fill="#1976D2"/>
</svg>
