<svg width="1251" height="142" viewBox="0 0 1251 142" fill="none" xmlns="http://www.w3.org/2000/svg">
<line x1="291.467" y1="21.5421" x2="251.477" y2="61.5314" stroke="#252A27" stroke-width="11.3107" stroke-linecap="round"/>
<path d="M206.005 18.6479L247.478 60.1205" stroke="#252A27" stroke-width="11.3107" stroke-linecap="round"/>
<line x1="251.879" y1="17.0701" x2="251.879" y2="51.0022" stroke="#252A27" stroke-width="11.3107" stroke-linecap="round"/>
<line x1="6.18311" y1="120.294" x2="120.819" y2="5.65753" stroke="#252A27" stroke-width="11.3107" stroke-linecap="round"/>
<path d="M240.133 130.507C242.342 132.715 245.922 132.715 248.131 130.507C250.34 128.298 250.34 124.717 248.131 122.509L240.133 130.507ZM130.829 5.20681L126.83 1.20787L118.832 9.20574L122.831 13.2047L130.829 5.20681ZM248.131 122.509L130.829 5.20681L122.831 13.2047L240.133 130.507L248.131 122.509Z" fill="#252A27"/>
<path d="M243.478 118.961L239.479 122.96L247.477 130.958L251.476 126.959L243.478 118.961ZM368.778 9.65684C370.987 7.44829 370.987 3.86752 368.778 1.65897C366.57 -0.549581 362.989 -0.549581 360.78 1.65897L368.778 9.65684ZM251.476 126.959L368.778 9.65684L360.78 1.65897L243.478 118.961L251.476 126.959Z" fill="#252A27"/>
<path d="M481.002 130.082C483.211 132.29 486.792 132.29 489 130.082C491.209 127.873 491.209 124.293 489 122.084L481.002 130.082ZM372.123 5.2069L368.124 1.20796L360.126 9.20583L364.125 13.2048L372.123 5.2069ZM489 122.084L372.123 5.2069L364.125 13.2048L481.002 130.082L489 122.084Z" fill="#252A27"/>
<line x1="81.5874" y1="109.062" x2="121.577" y2="69.0726" stroke="#252A27" stroke-width="11.3107" stroke-linecap="round"/>
<path d="M167.048 111.956L125.575 70.4835" stroke="#252A27" stroke-width="11.3107" stroke-linecap="round"/>
<line x1="121.175" y1="113.534" x2="121.175" y2="79.602" stroke="#252A27" stroke-width="11.3107" stroke-linecap="round"/>
<line x1="322.883" y1="111.728" x2="362.872" y2="71.7384" stroke="#252A27" stroke-width="11.3107" stroke-linecap="round"/>
<path d="M408.343 114.622L366.871 73.1493" stroke="#252A27" stroke-width="11.3107" stroke-linecap="round"/>
<line x1="362.47" y1="116.2" x2="362.47" y2="82.2678" stroke="#252A27" stroke-width="11.3107" stroke-linecap="round"/>
<line x1="528.991" y1="23.5284" x2="489.002" y2="63.5177" stroke="#252A27" stroke-width="11.3107" stroke-linecap="round"/>
<path d="M443.53 20.6343L485.002 62.1068" stroke="#252A27" stroke-width="11.3107" stroke-linecap="round"/>
<line x1="489.403" y1="19.0562" x2="489.403" y2="52.9883" stroke="#252A27" stroke-width="11.3107" stroke-linecap="round"/>
<path d="M485.002 124.946L602.304 7.64423" stroke="#252A27" stroke-width="11.3107" stroke-linecap="round"/>
<path d="M718.952 132.493C721.16 134.702 724.741 134.702 726.95 132.493C729.158 130.285 729.158 126.704 726.95 124.495L718.952 132.493ZM609.648 7.19313L605.649 3.1942L597.651 11.1921L601.65 15.191L609.648 7.19313ZM726.95 124.495L609.648 7.19313L601.65 15.191L718.952 132.493L726.95 124.495Z" fill="#252A27"/>
<line x1="560.407" y1="113.714" x2="600.397" y2="73.7249" stroke="#252A27" stroke-width="11.3107" stroke-linecap="round"/>
<path d="M645.868 116.608L604.395 75.1359" stroke="#252A27" stroke-width="11.3107" stroke-linecap="round"/>
<line x1="599.995" y1="118.186" x2="599.995" y2="84.2544" stroke="#252A27" stroke-width="11.3107" stroke-linecap="round"/>
<line x1="766.516" y1="27.2989" x2="726.527" y2="67.2882" stroke="#252A27" stroke-width="11.3107" stroke-linecap="round"/>
<path d="M681.056 24.4043L722.528 65.8768" stroke="#252A27" stroke-width="11.3107" stroke-linecap="round"/>
<line x1="726.928" y1="22.8267" x2="726.928" y2="56.7588" stroke="#252A27" stroke-width="11.3107" stroke-linecap="round"/>
<path d="M722.526 128.716L839.828 11.4143" stroke="#252A27" stroke-width="11.3107" stroke-linecap="round"/>
<path d="M956.476 136.264C958.685 138.472 962.266 138.472 964.474 136.264C966.683 134.055 966.683 130.474 964.474 128.266L956.476 136.264ZM847.172 10.9636L843.173 6.96471L835.175 14.9626L839.174 18.9615L847.172 10.9636ZM964.474 128.266L847.172 10.9636L839.174 18.9615L956.476 136.264L964.474 128.266Z" fill="#252A27"/>
<line x1="797.931" y1="117.484" x2="837.92" y2="77.495" stroke="#252A27" stroke-width="11.3107" stroke-linecap="round"/>
<path d="M883.391 120.378L841.919 78.9059" stroke="#252A27" stroke-width="11.3107" stroke-linecap="round"/>
<line x1="837.519" y1="121.956" x2="837.519" y2="88.0244" stroke="#252A27" stroke-width="11.3107" stroke-linecap="round"/>
<line x1="1004.04" y1="31.0689" x2="964.05" y2="71.0583" stroke="#252A27" stroke-width="11.3107" stroke-linecap="round"/>
<path d="M918.578 28.1748L960.051 69.6473" stroke="#252A27" stroke-width="11.3107" stroke-linecap="round"/>
<line x1="964.452" y1="26.5968" x2="964.452" y2="60.5288" stroke="#252A27" stroke-width="11.3107" stroke-linecap="round"/>
<line x1="1245.33" y1="32.8524" x2="1205.35" y2="72.8417" stroke="#252A27" stroke-width="11.3107" stroke-linecap="round"/>
<path d="M1159.87 29.9583L1201.35 71.4308" stroke="#252A27" stroke-width="11.3107" stroke-linecap="round"/>
<line x1="1205.75" y1="28.3804" x2="1205.75" y2="62.3125" stroke="#252A27" stroke-width="11.3107" stroke-linecap="round"/>
<path d="M960.052 132.487L1077.35 15.1848" stroke="#252A27" stroke-width="11.3107" stroke-linecap="round"/>
<path d="M1194 140.034C1196.21 142.242 1199.79 142.242 1202 140.034C1204.21 137.825 1204.21 134.245 1202 132.036L1194 140.034ZM1084.7 14.7339L1080.7 10.735L1072.7 18.7328L1076.7 22.7318L1084.7 14.7339ZM1202 132.036L1084.7 14.7339L1076.7 22.7318L1194 140.034L1202 132.036Z" fill="#252A27"/>
<line x1="1035.46" y1="121.255" x2="1075.45" y2="81.2652" stroke="#252A27" stroke-width="11.3107" stroke-linecap="round"/>
<path d="M1120.92 124.149L1079.44 82.6766" stroke="#252A27" stroke-width="11.3107" stroke-linecap="round"/>
<line x1="1075.04" y1="125.727" x2="1075.04" y2="91.7946" stroke="#252A27" stroke-width="11.3107" stroke-linecap="round"/>
</svg>
