<svg viewBox="0 0 120 65" fill="none" xmlns="http://www.w3.org/2000/svg">
<path d="M57.7016 64.9355C56.9465 64.9355 56.1914 64.9355 55.4364 64.9355C54.921 64.9072 54.4057 64.8534 53.8903 64.8534C44.9219 64.8572 35.963 64.6061 27.0276 63.7925C25.1031 63.617 23.1852 63.3725 21.2664 63.1403C19.7723 62.9601 18.2838 62.7241 16.7888 62.5599C15.3843 62.4051 13.9695 62.3437 12.566 62.1786C11.9053 62.1002 11.2682 61.8378 10.6094 61.7246C9.59101 61.55 8.55184 61.483 7.54004 61.2772C5.49661 60.8628 3.77976 59.7501 2.07707 58.6156C1.7033 58.3664 1.60231 58.0587 1.74483 57.6962C1.94304 57.1922 2.10916 56.6071 2.47725 56.2531C3.10019 55.6547 3.08509 54.8043 3.51831 54.1436C3.66461 53.9209 3.54852 53.5358 3.59193 53.23C3.61364 53.0742 3.68726 52.8477 3.80147 52.7977C4.16107 52.641 4.11482 52.3805 4.07518 52.0926C3.85904 50.5202 3.63913 48.9478 3.43431 47.3734C2.885 43.1497 2.347 38.9251 1.79485 34.7014C1.32954 31.144 0.979374 27.5848 1.06526 23.985C1.14549 20.6154 1.36635 17.2686 2.04686 13.9613C2.07423 13.8301 1.9723 13.6074 1.85904 13.5234C1.35502 13.1478 0.827416 12.8042 0.304526 12.4559C0.0751719 12.304 -0.0295942 12.1341 0.00721573 11.8311C0.121421 10.875 0.562196 10.0803 1.12756 9.3299C1.46734 8.87969 1.87791 8.44741 2.0799 7.93679C2.35644 7.23551 2.52539 6.47666 2.63205 5.72725C2.86329 4.11233 3.97797 3.26381 5.29652 2.64654C5.77599 2.42191 6.39704 2.47193 6.9558 2.45022C7.58912 2.42568 8.06293 2.16895 8.46595 1.68759C8.62546 1.49694 8.88879 1.33743 9.13136 1.28269C9.58723 1.17981 10.0629 1.1109 10.5292 1.1194C13.3739 1.17414 16.2187 1.26475 19.0644 1.32327C22.3659 1.39217 25.6666 1.46107 28.9681 1.49316C32.4585 1.52714 35.9507 1.56867 39.441 1.51581C44.4878 1.43842 49.5336 1.27419 54.5803 1.15338C59.9725 1.02501 65.3646 0.880607 70.7578 0.78811C74.8616 0.717322 78.9673 0.72393 83.0721 0.679569C86.1387 0.646534 89.2052 0.595566 92.2708 0.537048C96.2491 0.46154 100.226 0.388865 104.204 0.278435C105.726 0.235962 107.246 0.0953283 108.766 0C108.861 0 108.955 0 109.05 0C109.725 0.129307 110.397 0.292592 111.079 0.381314C112.236 0.532329 113.275 0.943845 114.133 1.72912C115.035 2.55499 116.052 3.19114 117.133 3.74801C117.649 4.01417 117.937 4.47005 117.985 5.06467C118.052 5.89053 118.182 6.7164 118.18 7.54132C118.178 8.21805 118.086 8.91178 117.918 9.56775C117.703 10.4087 117.332 11.2091 117.106 12.0482C116.98 12.5191 116.938 13.0402 116.984 13.5262C117.237 16.1624 117.622 18.7901 117.786 21.4309C117.984 24.6287 118.012 27.8368 118.106 31.0411C118.244 35.7509 118.261 40.4654 118.77 45.1573C118.784 45.2875 118.814 45.4697 118.902 45.5292C119.546 45.9643 119.696 46.608 119.751 47.3234C119.807 48.0681 119.914 48.809 120 49.5518C120 49.6151 120 49.6773 120 49.7406C119.777 50.4806 119.555 51.2205 119.333 51.9605C119.27 52.17 119.191 52.3758 119.151 52.5901C118.895 53.9341 118.622 55.2517 117.651 56.3277C117.091 56.9478 116.509 57.4282 115.66 57.5396C115.384 57.5764 115.116 57.6783 114.843 57.75C114.268 57.9011 113.699 58.0851 113.117 58.1955C111.711 58.4598 110.294 58.6599 108.891 58.9393C104.99 59.7151 101.098 60.5372 97.1958 61.3055C89.4534 62.8298 81.6224 63.6972 73.762 64.2409C68.6039 64.5976 63.4251 64.6703 58.2556 64.8723C58.0687 64.8789 57.8856 64.9138 57.7016 64.9355ZM74.9919 33.5754C75.3987 33.144 75.864 32.657 76.3227 32.1653C77.41 30.9977 77.9933 29.5848 78.1415 28.0275C78.2906 26.4578 77.6931 25.1119 76.586 23.9963C74.1377 21.5281 71.1825 20.9316 67.8762 21.6508C67.2061 21.7962 67.2108 21.8113 67.1287 21.1497C67.106 20.9647 67.056 20.7806 67.0485 20.5956C66.9758 18.9071 66.0867 18.2558 64.6379 17.8915C64.3444 17.8179 63.9763 18.1105 63.6402 18.119C62.8946 18.1369 62.5643 18.555 62.4029 19.2082C62.3547 19.4026 62.3047 19.6187 62.1858 19.7698C61.7544 20.3162 61.6119 20.9637 61.5581 21.6178C61.3863 23.6962 61.1947 25.7764 61.124 27.8594C60.9522 32.859 61.0286 37.8576 61.2231 42.8571C61.2929 44.6561 61.157 46.4617 61.1419 48.2654C61.14 48.4598 61.2646 48.7344 61.4194 48.8354C61.9036 49.1526 62.4123 49.448 62.9446 49.6707C63.4562 49.885 64.0065 50.1219 64.5539 49.7057C64.603 49.6689 64.7106 49.6613 64.7663 49.6887C65.3288 49.9671 65.8838 50.1785 66.5454 50.2012C67.3958 50.2304 68.2358 50.5032 69.0872 50.5551C71.9782 50.7316 74.6511 49.9916 77.0013 48.3173C79.6705 46.4164 81.074 43.8227 80.8267 40.4739C80.6587 38.203 79.4921 36.49 77.6799 35.2073C76.8163 34.5957 75.8706 34.103 74.9919 33.5754ZM10.684 40.5541C10.7161 42.4796 10.9681 44.1266 11.4192 45.7293C11.8194 47.1507 12.3433 48.5372 13.3013 49.7076C15.054 51.8501 17.3824 53.096 19.9412 53.9841C21.3589 54.4758 22.853 54.5504 24.3159 54.8005C26.7171 55.2121 28.9106 54.7769 30.9238 53.4508C32.1772 52.625 33.0776 51.4556 33.8431 50.1776C34.5425 49.011 35.0578 47.767 35.357 46.4437C35.4684 45.9529 35.4571 45.4348 35.5165 44.9308C35.6005 44.22 35.0059 44.0747 34.584 43.7802C34.4302 43.6726 34.2952 43.5376 34.1442 43.4244C33.4986 42.9411 32.6066 42.8939 31.9299 43.2866C31.8138 43.3536 31.6647 43.3951 31.5307 43.3951C30.7737 43.3932 30.3395 43.8954 30.0989 44.4787C29.508 45.9133 28.6114 47.1054 27.4174 48.0624C26.953 48.4343 26.382 48.8524 25.828 48.9025C23.5731 49.1073 21.6071 48.4588 20.2026 46.5579C19.9044 46.154 19.6203 45.7377 19.3645 45.3064C18.214 43.364 17.4023 41.3017 17.3768 39.0129C17.3437 36.0143 18.2083 33.2573 19.8204 30.7448C20.9804 28.9354 22.5056 27.5121 24.5339 26.7089C25.9478 26.1492 26.9823 26.438 28.013 27.5508C28.9766 28.5909 29.7053 29.7849 30.2725 31.0638C30.7435 32.1247 31.5684 32.6702 32.6019 33.0006C32.7737 33.0553 32.9738 33.0194 33.1607 33.0327C33.4061 33.0506 33.6826 33.0119 33.8893 33.1119C34.6472 33.48 35.2003 33.2195 35.458 32.4097C35.7742 31.4149 35.8006 30.4182 35.6968 29.3913C35.5533 27.968 35.2013 26.6192 34.1687 25.5895C33.4297 24.8524 32.5849 24.2134 31.7487 23.5819C29.9969 22.2596 27.962 21.6518 25.8138 21.4441C23.6307 21.2337 21.6014 21.8962 19.7326 22.9279C17.0946 24.3842 15.2295 26.6136 13.9082 29.3035C13.6042 29.9227 13.3532 30.5683 13.0596 31.194C11.6278 34.2389 10.8435 37.4432 10.684 40.5541ZM87.9867 21.6565C88.0726 21.6367 88.116 21.6216 88.1613 21.6169C90.1717 21.3743 92.183 21.1402 94.1915 20.8882C96.2472 20.6296 98.3039 20.3748 100.354 20.0727C101.011 19.9765 101.75 19.8415 101.975 19.0675C102.226 18.2068 102.628 17.3516 102.366 16.4125C102.322 16.2549 102.258 16.0652 102.139 15.9727C101.73 15.6574 101.326 15.2941 100.857 15.11C100.317 14.8976 99.6923 14.7013 99.1373 14.7674C97.6819 14.9411 96.2482 15.2884 94.7975 15.5159C92.5257 15.8717 90.2453 16.1699 87.9735 16.522C86.0452 16.8202 84.083 16.9769 82.2425 17.682C81.8791 17.8217 81.4647 18.1237 81.3166 18.4588C81.1127 18.9222 80.9985 19.4196 80.6823 19.8434C80.4492 20.1558 80.5039 20.4522 80.8796 20.6551C81.3911 20.9307 81.8753 21.2676 82.4086 21.4885C82.7899 21.6471 83.1976 21.8302 83.6686 21.597C83.8404 21.5121 84.1641 21.6839 84.3916 21.7952C84.452 21.8245 84.4341 22.068 84.4095 22.2058C84.2463 23.1449 84.0726 24.0831 83.8989 25.0204C83.292 28.3021 83.1353 31.6263 83.0296 34.9506C82.9579 37.1846 83.2873 39.3932 83.7026 41.5877C83.982 43.0638 84.6615 44.254 85.9697 45.0591C88.5304 46.6344 91.3175 47.0695 94.2378 46.608C96.9995 46.1719 99.612 45.2413 102.077 43.9133C102.561 43.6528 103.038 43.3838 103.648 43.0478C103.34 43.8906 103.093 44.591 102.83 45.2856C102.694 45.6443 102.807 45.834 103.098 46.1058C103.942 46.8968 105.117 46.4513 106.013 46.9808C106.034 46.9931 106.074 46.9732 106.104 46.9676C106.723 46.8335 107.108 46.473 107.252 45.8416C107.38 45.2828 107.551 44.7344 107.693 44.1795C108.063 42.7335 108.574 41.3092 108.479 39.783C108.43 39.0091 108.307 38.2606 107.594 37.7547C106.915 37.2724 106.192 36.9449 105.378 36.7165C103.945 36.3135 102.554 35.766 101.143 35.2847C100.385 35.0261 99.6243 34.6721 98.8154 35.0506C98.5785 35.161 98.3803 35.3857 98.2104 35.5952C98.0887 35.7462 98.0755 35.9822 97.9584 36.1389C97.7177 36.4588 97.7404 36.725 98.0698 36.9355C98.7503 37.3696 99.4318 37.8057 100.134 38.203C100.651 38.4956 101.201 38.7297 101.808 39.0251C101.552 39.2233 101.364 39.3838 101.161 39.5216C99.6611 40.5419 98.0679 41.3838 96.3671 42.0162C94.4596 42.7259 92.52 43.2186 90.452 43.0374C89.377 42.943 88.7984 42.6268 88.5313 41.5811C88.1424 40.0577 87.7772 38.5164 87.5771 36.96C87.4251 35.7736 87.5469 34.5513 87.5469 33.3932C88.3963 33.4536 89.2316 33.6263 90.0424 33.548C91.7998 33.379 93.5488 33.1063 95.2921 32.8222C95.8442 32.7325 96.4851 32.6674 96.8003 32.0888C96.9759 31.767 97.0325 31.3809 97.159 31.0298C97.4421 30.2455 97.2741 29.6877 96.6106 29.2403C96.5068 29.1704 96.4039 29.0959 96.3105 29.0128C95.8046 28.5683 95.1845 28.4258 94.5568 28.5154C93.1854 28.7108 91.8291 29.0081 90.4577 29.1997C89.5658 29.3243 88.6568 29.3347 87.6809 29.4007C87.7857 26.7636 87.8857 24.2266 87.9867 21.6565ZM39.3901 34.5768C39.3901 34.7495 39.4212 34.9298 39.3853 35.094C39.1456 36.1728 39.7072 36.7986 40.6435 37.0336C41.4769 37.2422 41.5411 37.7783 41.6817 38.4654C42.0677 40.3437 42.9295 41.9473 44.5652 43.0884C46.1263 44.1776 47.9073 44.4579 49.7129 44.5249C51.8252 44.6032 53.527 43.6405 54.8087 41.9888C56.3708 39.9756 57.005 37.5961 57.2061 35.1204C57.3863 32.8996 57.0843 30.6891 56.5548 28.5249C56.1999 27.0751 55.7204 25.6537 54.6114 24.5862C53.9394 23.9387 53.1909 23.3601 52.4293 22.8155C50.8446 21.682 49.0484 21.2667 47.1485 21.632C44.6227 22.1171 42.686 23.4659 41.5807 25.8623C41.4108 26.2313 41.2645 26.6117 41.0937 26.9798C39.9762 29.3894 39.3127 31.9 39.3901 34.5768ZM50.7143 50.4617C51.2919 50.4107 51.9026 50.3739 52.5095 50.3012C53.9253 50.1313 55.2608 49.7208 56.4453 48.8977C57.2702 48.3239 57.929 47.5915 58.4076 46.7127C58.6162 46.3295 58.7889 45.8548 58.4501 45.4791C57.8932 44.8609 57.0116 44.8166 56.4925 45.5669C55.8337 46.5202 54.9437 47.1884 53.896 47.6745C52.2018 48.4598 50.433 48.5391 48.6133 48.3371C46.7171 48.1257 45.0607 47.3404 43.5071 46.2993C42.9635 45.935 42.4717 45.4923 41.9516 45.0912C41.6496 44.8581 41.2674 44.7835 41.0021 45.0299C40.7709 45.2441 40.6954 45.5792 40.9021 45.9529C41.408 46.8675 42.2037 47.4857 43.0229 48.053C45.3183 49.6424 47.9196 50.3126 50.7143 50.4617ZM99.3128 7.74424C99.2647 7.7282 99.2166 7.71309 99.1694 7.69705C99.2383 7.18926 98.9948 6.90611 98.5851 6.63334C97.7168 6.05665 96.7909 6.05665 96.0283 6.75887C94.9192 7.78011 93.8414 8.83627 92.7173 9.84052C91.9829 10.4965 91.344 11.2034 91.0155 12.1444C90.9693 12.2756 90.973 12.5324 91.0504 12.5814C91.6243 12.9524 92.0585 13.5347 92.9551 13.2978C93.5611 13.1383 94.1189 12.9882 94.5946 12.5947C95.8886 11.5243 97.2147 10.488 98.4417 9.345C98.8636 8.95236 99.0297 8.28601 99.3128 7.74424ZM34.9653 22.5919C34.9049 22.9562 35.1994 23.1619 35.5269 23.3856C35.9403 23.6688 36.3046 23.833 36.8577 23.699C37.4174 23.564 37.6977 23.3224 37.7827 22.7816C37.7978 22.6825 37.8865 22.59 37.9535 22.505C38.1593 22.2445 38.0583 22.0963 37.8261 21.8915C37.2324 21.3686 36.4226 21.6112 35.7883 21.2639C35.7591 21.2478 35.7015 21.2846 35.6562 21.295C35.1994 21.3979 34.9672 21.8028 34.9653 22.5919ZM32.9493 19.4696C32.6255 19.3696 32.3367 19.2884 32.0536 19.1902C31.845 19.1185 31.6081 18.9807 31.5146 19.2969C31.4438 19.5385 31.3872 19.7943 31.6807 20.0038C32.2876 20.4361 32.6123 20.3408 32.9493 19.4696Z" fill="#FCFCFC"/>
<path d="M67.6242 33.4564C67.5921 33.1299 67.5449 32.8363 67.5374 32.5409C67.476 30.1058 67.4288 27.6707 67.3599 25.2356C67.3505 24.892 67.4458 24.7061 67.7903 24.6513C69.023 24.4569 70.2519 24.2294 71.4902 24.0727C72.0763 23.9982 72.5926 24.2672 73.0022 24.6985C73.8215 25.5612 74.4992 26.5022 74.4057 27.7679C74.3784 28.1417 74.2613 28.5475 74.065 28.8646C73.1315 30.3691 71.7592 31.4111 70.3 32.3663C69.4883 32.8967 68.6417 33.2988 67.6242 33.4564Z" fill="#FCFCFC"/>
<path d="M67.8668 45.5263C67.8668 44.1266 67.8866 42.7779 67.8611 41.43C67.8375 40.237 67.7752 39.0449 67.7035 37.8538C67.678 37.4395 67.7261 37.1931 68.2254 37.1365C69.0768 37.0393 69.9159 36.8326 70.7672 36.7306C71.5648 36.6363 72.2113 36.9468 72.7578 37.5574C74.1075 39.0648 74.1783 40.7977 73.7299 42.6353C73.3363 44.2465 71.5865 45.5008 69.8158 45.5254C69.191 45.5339 68.5671 45.5263 67.8668 45.5263Z" fill="#FCFCFC"/>
<path d="M52.3405 34.976C52.2075 35.9331 52.1886 36.9251 51.913 37.8397C51.5345 39.0987 50.7313 40.0832 49.3759 40.4362C48.7256 40.6061 48.1782 40.4664 47.7299 39.8699C46.601 38.3692 45.8997 36.6825 45.4495 34.8816C45.3287 34.4003 45.172 33.9954 44.6973 33.7755C44.3528 33.616 44.2877 33.3328 44.2896 32.9694C44.3018 30.8996 44.6935 28.9317 45.9073 27.2148C46.5973 26.2389 47.5401 25.581 48.7766 25.481C48.9672 25.4659 49.2032 25.5735 49.3627 25.6962C50.1404 26.2983 50.669 27.094 50.9871 28.0152C51.7629 30.2653 52.2707 32.5664 52.3405 34.976Z" fill="#FCFCFC"/>
</svg>
