<svg width="112" height="61" viewBox="0 0 112 61" fill="none" xmlns="http://www.w3.org/2000/svg">
<path d="M53.8548 60.6065C53.1501 60.6065 52.4453 60.6065 51.7406 60.6065C51.2596 60.5801 50.7786 60.5299 50.2976 60.5299C41.9271 60.5334 33.5654 60.2991 25.2257 59.5397C23.4295 59.3759 21.6395 59.1477 19.8486 58.931C18.4541 58.7627 17.0649 58.5425 15.6695 58.3892C14.3587 58.2447 13.0382 58.1875 11.7283 58.0333C11.1116 57.9602 10.517 57.7153 9.90212 57.6096C8.95161 57.4466 7.98171 57.3841 7.03737 57.192C5.13017 56.8053 3.52778 55.7667 1.93859 54.7078C1.58975 54.4753 1.49549 54.1881 1.62851 53.8498C1.8135 53.3794 1.96854 52.8332 2.3121 52.5029C2.89351 51.9444 2.87942 51.1507 3.28376 50.534C3.4203 50.3261 3.31195 49.9667 3.35247 49.6813C3.37273 49.536 3.44144 49.3245 3.54804 49.2779C3.88367 49.1316 3.8405 48.8885 3.8035 48.6198C3.60177 47.1522 3.39652 45.6846 3.20536 44.2152C2.69266 40.2731 2.19054 36.3301 1.6752 32.3879C1.2409 29.0678 0.914083 25.7458 0.994247 22.386C1.06912 19.2411 1.27526 16.1173 1.9104 13.0306C1.93595 12.9081 1.84081 12.7002 1.7351 12.6218C1.26469 12.2712 0.772255 11.9506 0.284224 11.6255C0.0701605 11.4837 -0.0276212 11.3251 0.00673468 11.0423C0.113326 10.15 0.524716 9.40824 1.05239 8.7079C1.36952 8.28771 1.75272 7.88425 1.94124 7.40767C2.19935 6.75314 2.35703 6.04488 2.45658 5.34543C2.6724 3.83817 3.71277 3.04623 4.94342 2.4701C5.39092 2.26044 5.97057 2.30713 6.49208 2.28687C7.08317 2.26397 7.5254 2.02436 7.90155 1.57509C8.05043 1.39714 8.2962 1.24827 8.5226 1.19717C8.94808 1.10115 9.39207 1.03684 9.82724 1.04477C12.4823 1.09587 15.1374 1.18043 17.7934 1.23505C20.8749 1.29936 23.9555 1.36367 27.0369 1.39362C30.2946 1.42533 33.554 1.46409 36.8116 1.41476C41.5219 1.34253 46.2313 1.18924 50.9416 1.07649C55.9743 0.956681 61.007 0.8219 66.0406 0.73557C69.8708 0.669501 73.7028 0.675668 77.534 0.634264C80.3961 0.603432 83.2582 0.555861 86.1194 0.501244C89.8325 0.430771 93.5447 0.362941 97.2569 0.259873C98.6778 0.220231 100.096 0.088973 101.515 0C101.603 0 101.691 0 101.78 0C102.41 0.120686 103.038 0.273086 103.674 0.355893C104.754 0.49684 105.723 0.880922 106.524 1.61385C107.366 2.38465 108.315 2.9784 109.324 3.49814C109.806 3.74656 110.074 4.17204 110.119 4.72702C110.182 5.49783 110.303 6.26864 110.302 7.03856C110.3 7.67018 110.213 8.31766 110.057 8.9299C109.856 9.7148 109.51 10.4618 109.299 11.245C109.181 11.6845 109.142 12.1708 109.185 12.6245C109.422 15.0849 109.78 17.5374 109.933 20.0022C110.118 22.9868 110.145 25.981 110.232 28.9717C110.361 33.3675 110.377 37.7677 110.852 42.1468C110.865 42.2684 110.893 42.4384 110.975 42.4939C111.576 42.9 111.716 43.5008 111.767 44.1685C111.82 44.8636 111.92 45.5551 112 46.2484C112 46.3074 112 46.3655 112 46.4245C111.792 47.1152 111.584 47.8058 111.377 48.4965C111.319 48.692 111.245 48.8841 111.207 49.084C110.968 50.3385 110.714 51.5682 109.807 52.5725C109.285 53.1513 108.741 53.5997 107.95 53.7036C107.691 53.738 107.441 53.8331 107.187 53.9C106.65 54.041 106.119 54.2128 105.575 54.3158C104.264 54.5625 102.941 54.7492 101.632 55.01C97.9907 55.7341 94.3578 56.5014 90.7161 57.2185C83.4899 58.6412 76.1809 59.4507 68.8446 59.9581C64.0303 60.2911 59.1967 60.359 54.3719 60.5475C54.1975 60.5536 54.0266 60.5862 53.8548 60.6065ZM69.9924 31.337C70.3721 30.9344 70.8064 30.4799 71.2345 30.0209C72.2493 28.9312 72.7937 27.6125 72.932 26.159C73.0712 24.694 72.5136 23.4378 71.4803 22.3965C69.1952 20.0929 66.437 19.5362 63.3511 20.2075C62.7257 20.3431 62.7301 20.3572 62.6535 19.7397C62.6323 19.567 62.5856 19.3952 62.5786 19.2226C62.5107 17.6466 61.6809 17.0388 60.3287 16.6987C60.0547 16.63 59.7112 16.9031 59.3976 16.911C58.7016 16.9278 58.3933 17.318 58.2427 17.9276C58.1977 18.1091 58.1511 18.3108 58.0401 18.4518C57.6375 18.9618 57.5045 19.5661 57.4543 20.1766C57.2939 22.1164 57.1151 24.058 57.049 26.0021C56.8887 30.6684 56.96 35.3337 57.1415 40C57.2067 41.679 57.0799 43.3642 57.0658 45.0477C57.064 45.2291 57.1803 45.4855 57.3248 45.5797C57.7767 45.8757 58.2515 46.1515 58.7483 46.3594C59.2258 46.5593 59.7394 46.7804 60.2503 46.392C60.2961 46.3576 60.3965 46.3506 60.4485 46.3761C60.9735 46.636 61.4915 46.8333 62.109 46.8544C62.9027 46.8817 63.6868 47.1363 64.4814 47.1848C67.1796 47.3495 69.6744 46.6589 71.8679 45.0961C74.3591 43.3219 75.6691 40.9012 75.4383 37.7757C75.2815 35.6562 74.1926 34.0573 72.5013 32.8601C71.6952 32.2893 70.8125 31.8294 69.9924 31.337ZM9.97171 37.8505C10.0017 39.6476 10.2369 41.1848 10.658 42.6806C11.0315 44.0073 11.5204 45.3014 12.4145 46.3937C14.0504 48.3934 16.2236 49.5562 18.6118 50.3852C19.9349 50.8441 21.3294 50.9137 22.6949 51.1472C24.9359 51.5312 26.9832 51.1251 28.8622 49.8874C30.0321 49.1166 30.8724 48.0252 31.5869 46.8324C32.2396 45.7436 32.7206 44.5825 32.9999 43.3475C33.1038 42.8894 33.0933 42.4058 33.1488 41.9354C33.2271 41.272 32.6722 41.1364 32.2784 40.8615C32.1348 40.7611 32.0088 40.6351 31.8679 40.5294C31.2653 40.0784 30.4329 40.0343 29.8012 40.4008C29.6929 40.4634 29.5537 40.5021 29.4286 40.5021C28.7221 40.5004 28.3169 40.969 28.0923 41.5134C27.5408 42.8524 26.7039 43.965 25.5896 44.8583C25.1562 45.2053 24.6232 45.5956 24.1061 45.6423C22.0016 45.8334 20.1666 45.2283 18.8558 43.4541C18.5774 43.077 18.3123 42.6886 18.0735 42.286C16.9997 40.473 16.2421 38.5482 16.2183 36.412C16.1875 33.6133 16.9944 31.0401 18.499 28.6951C19.5817 27.0064 21.0053 25.678 22.8984 24.9283C24.218 24.4059 25.1835 24.6755 26.1454 25.7141C27.0448 26.6849 27.7249 27.7992 28.2544 28.9929C28.6939 29.983 29.4639 30.4922 30.4285 30.8005C30.5888 30.8516 30.7756 30.8181 30.95 30.8305C31.179 30.8472 31.4371 30.8111 31.63 30.9045C32.3374 31.248 32.8536 31.0049 33.0941 30.2491C33.3892 29.3206 33.4139 28.3903 33.317 27.4319C33.1831 26.1035 32.8545 24.8446 31.8908 23.8835C31.201 23.1955 30.4126 22.5992 29.6321 22.0098C27.9971 20.7756 26.0979 20.2083 24.0929 20.0145C22.0553 19.8181 20.1613 20.4365 18.4171 21.3993C15.9549 22.7586 14.2142 24.8393 12.9809 27.35C12.6973 27.9278 12.463 28.5304 12.189 29.1144C10.8526 31.9563 10.1206 34.947 9.97171 37.8505ZM82.1209 20.2127C82.2011 20.1942 82.2416 20.1801 82.2839 20.1757C84.1603 19.9493 86.0375 19.7309 87.9121 19.4957C89.8307 19.2543 91.7503 19.0164 93.6636 18.7346C94.2768 18.6447 94.9665 18.5187 95.177 17.7964C95.4114 16.993 95.7858 16.1949 95.5418 15.3183C95.5004 15.1712 95.4404 14.9942 95.3294 14.9078C94.948 14.6136 94.571 14.2744 94.1332 14.1027C93.6293 13.9045 93.0461 13.7212 92.5281 13.7829C91.1697 13.945 89.8316 14.2692 88.4776 14.4815C86.3573 14.8136 84.229 15.0919 82.1086 15.4205C80.3089 15.6989 78.4774 15.8451 76.7596 16.5032C76.4205 16.6336 76.0338 16.9154 75.8955 17.2282C75.7052 17.6607 75.5986 18.125 75.3035 18.5205C75.0859 18.8121 75.137 19.0887 75.4876 19.2781C75.965 19.5353 76.417 19.8498 76.9147 20.0559C77.2706 20.2039 77.6511 20.3748 78.0907 20.1572C78.251 20.078 78.5532 20.2383 78.7655 20.3422C78.8219 20.3695 78.8051 20.5968 78.7822 20.7254C78.6298 21.6019 78.4677 22.4776 78.3056 23.3523C77.7392 26.4153 77.593 29.5179 77.4943 32.6205C77.4274 34.7057 77.7348 36.767 78.1224 38.8151C78.3832 40.1929 79.0174 41.3037 80.2384 42.0552C82.6283 43.5254 85.2297 43.9315 87.9553 43.5008C90.5328 43.0938 92.9712 42.2252 95.2722 40.9857C95.7232 40.7426 96.169 40.4915 96.738 40.1779C96.4509 40.9646 96.2201 41.6182 95.9743 42.2666C95.8474 42.6013 95.9531 42.7784 96.2245 43.0321C97.0129 43.7703 98.1096 43.3545 98.9456 43.8487C98.965 43.8602 99.002 43.8417 99.0302 43.8364C99.6081 43.7113 99.9675 43.3748 100.102 42.7855C100.221 42.264 100.381 41.7521 100.514 41.2342C100.859 39.8846 101.336 38.5553 101.247 37.1308C101.202 36.4085 101.086 35.7099 100.421 35.2377C99.7869 34.7876 99.1121 34.4819 98.3528 34.2687C97.0155 33.8926 95.7171 33.3816 94.4001 32.9324C93.6927 32.691 92.9827 32.3606 92.2277 32.7139C92.0066 32.817 91.8216 33.0266 91.6631 33.2222C91.5494 33.3631 91.5371 33.5834 91.4279 33.7296C91.2032 34.0282 91.2244 34.2766 91.5318 34.4731C92.1669 34.8783 92.803 35.2853 93.4584 35.6562C93.9411 35.9293 94.4547 36.1477 95.0211 36.4234C94.7815 36.6084 94.6062 36.7582 94.4168 36.8868C93.017 37.8391 91.53 38.6249 89.9426 39.2151C88.1623 39.8775 86.352 40.3374 84.4219 40.1682C83.4185 40.0802 82.8785 39.785 82.6292 38.809C82.2663 37.3872 81.9254 35.9486 81.7386 34.496C81.5968 33.3887 81.7104 32.2479 81.7104 31.167C82.5032 31.2234 83.2829 31.3846 84.0396 31.3115C85.6798 31.1538 87.3122 30.8992 88.9393 30.634C89.4546 30.5503 90.0527 30.4896 90.347 29.9496C90.5108 29.6492 90.5637 29.2889 90.6817 28.9612C90.946 28.2291 90.7892 27.7085 90.1699 27.2909C90.073 27.2257 89.977 27.1562 89.8898 27.0786C89.4176 26.6637 88.8388 26.5307 88.253 26.6144C86.973 26.7967 85.7072 27.0742 84.4272 27.2531C83.5947 27.3693 82.7464 27.379 81.8355 27.4407C81.9333 24.9794 82.0267 22.6115 82.1209 20.2127ZM36.7641 32.2717C36.7641 32.4329 36.7931 32.6011 36.7596 32.7544C36.5359 33.7613 37.06 34.3454 37.9339 34.5647C38.7118 34.7594 38.7717 35.2598 38.9029 35.9011C39.2632 37.6541 40.0675 39.1508 41.5941 40.2158C43.0512 41.2324 44.7135 41.494 46.3987 41.5566C48.3702 41.6297 49.9585 40.7312 51.1548 39.1895C52.6127 37.3105 53.2047 35.0897 53.3923 32.7791C53.5606 30.7063 53.2787 28.6432 52.7845 26.6232C52.4533 25.2701 52.0057 23.9434 50.9707 22.9471C50.3435 22.3428 49.6449 21.8028 48.934 21.2945C47.4549 20.2365 45.7785 19.8489 44.0052 20.1898C41.6479 20.6426 39.8402 21.9015 38.8087 24.1381C38.6501 24.4826 38.5136 24.8376 38.3541 25.1811C37.3111 27.4301 36.6918 29.7734 36.7641 32.2717ZM47.3333 47.0976C47.8725 47.05 48.4424 47.0156 49.0089 46.9478C50.3302 46.7892 51.5767 46.406 52.6823 45.6379C53.4522 45.1023 54.0671 44.4187 54.5137 43.5985C54.7084 43.2409 54.8696 42.7978 54.5534 42.4472C54.0336 41.8702 53.2108 41.8288 52.7263 42.5291C52.1115 43.4188 51.2808 44.0425 50.3029 44.4962C48.7217 45.2291 47.0708 45.3031 45.3724 45.1146C43.6026 44.9173 42.0566 44.1844 40.6066 43.2127C40.0992 42.8727 39.6403 42.4595 39.1549 42.0851C38.873 41.8675 38.5162 41.7979 38.2687 42.0279C38.0528 42.2278 37.9824 42.5406 38.1753 42.8894C38.6475 43.743 39.3901 44.32 40.1547 44.8495C42.2971 46.3329 44.7249 46.9584 47.3333 47.0976ZM92.692 7.22796C92.647 7.21298 92.6021 7.19889 92.5581 7.18391C92.6224 6.70998 92.3951 6.4457 92.0128 6.19112C91.2023 5.65287 90.3382 5.65287 89.6264 6.30828C88.5913 7.26143 87.5853 8.24718 86.5361 9.18448C85.8507 9.79672 85.2544 10.4565 84.9478 11.3348C84.9046 11.4573 84.9082 11.6969 84.9804 11.7427C85.516 12.0889 85.9212 12.6324 86.7581 12.4113C87.3236 12.2624 87.8443 12.1224 88.2883 11.755C89.496 10.756 90.7337 9.7888 91.8789 8.722C92.2727 8.35554 92.4277 7.73361 92.692 7.22796ZM32.6343 21.0857C32.5779 21.4258 32.8528 21.6178 33.1584 21.8266C33.5443 22.0909 33.8843 22.2441 34.4005 22.1191C34.9229 21.9931 35.1846 21.7676 35.2638 21.2628C35.2779 21.1703 35.3607 21.084 35.4233 21.0047C35.6153 20.7616 35.5211 20.6232 35.3044 20.4321C34.7503 19.9441 33.9944 20.1705 33.4025 19.8463C33.3751 19.8313 33.3214 19.8657 33.2791 19.8753C32.8528 19.9714 32.6361 20.3493 32.6343 21.0857ZM30.7526 18.1716C30.4505 18.0783 30.1809 18.0025 29.9166 17.9109C29.722 17.8439 29.5009 17.7153 29.4136 18.0104C29.3476 18.2359 29.2947 18.4747 29.5687 18.6702C30.1351 19.0737 30.4382 18.9847 30.7526 18.1716Z" fill="#FCFCFC"/>
<path d="M69.9924 31.337C70.8125 31.8294 71.6952 32.2893 72.4995 32.8584C74.1909 34.0555 75.2797 35.6544 75.4365 37.7739C75.6673 40.8994 74.3574 43.3211 71.8661 45.0944C69.6726 46.6562 67.1779 47.3469 64.4796 47.183C63.685 47.1346 62.901 46.8791 62.1073 46.8527C61.4897 46.8315 60.9718 46.6351 60.4467 46.3743C60.3948 46.3488 60.2935 46.3558 60.2485 46.3902C59.7376 46.7787 59.224 46.5576 58.7466 46.3576C58.2497 46.1488 57.7749 45.874 57.323 45.578C57.1785 45.4828 57.0631 45.2265 57.064 45.0459C57.0781 43.3633 57.2049 41.6773 57.1398 39.9982C56.9583 35.332 56.8869 30.6666 57.0473 26.0004C57.1142 24.0562 57.293 22.1146 57.4525 20.1749C57.5027 19.5644 57.6366 18.9601 58.0383 18.45C58.1493 18.3091 58.196 18.1073 58.2409 17.9259C58.3915 17.3163 58.6999 16.926 59.3958 16.9093C59.7094 16.9014 60.053 16.6283 60.3269 16.697C61.6791 17.037 62.509 17.6449 62.5768 19.2208C62.5839 19.3944 62.6305 19.5653 62.6517 19.7379C62.7283 20.3554 62.7239 20.3422 63.3494 20.2057C66.4343 19.5344 69.1934 20.0912 71.4785 22.3948C72.5109 23.436 73.0695 24.6922 72.9303 26.1572C72.792 27.6116 72.2476 28.9303 71.2327 30.0192C70.8064 30.4799 70.3721 30.9344 69.9924 31.337ZM63.1159 31.226C64.0656 31.0789 64.8557 30.7036 65.6133 30.2077C66.9752 29.3162 68.2561 28.3445 69.1273 26.9395C69.3106 26.6435 69.4198 26.2647 69.4453 25.9158C69.5326 24.7345 68.8992 23.8553 68.1354 23.0511C67.7531 22.6485 67.2712 22.3974 66.7242 22.467C65.5693 22.6141 64.4223 22.8264 63.271 23.007C62.9494 23.0572 62.8605 23.2317 62.8693 23.5523C62.9345 25.8251 62.9785 28.0979 63.0349 30.3706C63.0419 30.6472 63.086 30.9212 63.1159 31.226ZM63.3423 42.4912C63.996 42.4912 64.5783 42.4974 65.1605 42.4903C66.8131 42.4683 68.4464 41.2967 68.8137 39.793C69.2322 38.0787 69.167 36.4604 67.9064 35.0536C67.3954 34.4837 66.7929 34.193 66.0485 34.2819C65.2539 34.3762 64.4708 34.5691 63.6762 34.6607C63.2102 34.7145 63.1653 34.9435 63.189 35.3302C63.2569 36.4419 63.315 37.5546 63.3362 38.668C63.3617 39.926 63.3423 41.1848 63.3423 42.4912Z" fill="#F86624"/>
<path d="M9.97171 37.8505C10.1206 34.947 10.8526 31.9572 12.189 29.1136C12.463 28.5304 12.6973 27.9278 12.9809 27.3491C14.2142 24.8385 15.9549 22.7577 18.4171 21.3985C20.1613 20.4356 22.0553 19.8172 24.0929 20.0137C26.0979 20.2075 27.9962 20.7748 29.6321 22.0089C30.4126 22.5983 31.201 23.1947 31.8908 23.8827C32.8545 24.8437 33.1831 26.1026 33.317 27.431C33.4139 28.3894 33.3892 29.3188 33.0941 30.2482C32.8536 31.004 32.3374 31.2472 31.63 30.9036C31.4371 30.8093 31.1781 30.8463 30.95 30.8296C30.7764 30.8164 30.5897 30.8507 30.4285 30.7996C29.4639 30.4913 28.6931 29.9822 28.2544 28.992C27.7249 27.7983 27.0448 26.6849 26.1454 25.7132C25.1835 24.6746 24.2189 24.405 22.8984 24.9274C21.0053 25.6771 19.5817 27.0055 18.499 28.6942C16.9953 31.0393 16.1884 33.6133 16.2183 36.4111C16.2421 38.5474 16.9997 40.4722 18.0735 42.2851C18.3123 42.6877 18.5774 43.077 18.8558 43.4532C20.1666 45.2283 22.0016 45.8326 24.1061 45.6414C24.6232 45.5947 25.1562 45.2045 25.5896 44.8574C26.7039 43.965 27.5408 42.8524 28.0923 41.5125C28.3169 40.9681 28.7221 40.4995 29.4286 40.5012C29.5537 40.5012 29.6929 40.4634 29.8012 40.3999C30.4329 40.0335 31.2653 40.0775 31.8679 40.5285C32.0088 40.6343 32.1348 40.7602 32.2784 40.8606C32.6722 41.1364 33.2271 41.2712 33.1488 41.9345C33.0933 42.4049 33.1029 42.8876 32.9999 43.3466C32.7206 44.5825 32.2396 45.7427 31.5869 46.8315C30.8724 48.0234 30.0321 49.1158 28.8622 49.8866C26.9832 51.1243 24.9359 51.5304 22.6949 51.1463C21.3294 50.912 19.9349 50.8432 18.6118 50.3843C16.2236 49.5553 14.0504 48.3925 12.4145 46.3928C11.5204 45.3005 11.0315 44.0064 10.658 42.6797C10.2369 41.1848 10.0025 39.6467 9.97171 37.8505Z" fill="#F86624"/>
<path d="M82.1209 20.2127C82.0267 22.6106 81.9333 24.9794 81.8355 27.4425C82.7464 27.3808 83.5947 27.3711 84.4272 27.2548C85.7071 27.076 86.973 26.7985 88.253 26.6162C88.8388 26.5325 89.4176 26.6655 89.8898 27.0804C89.9779 27.1579 90.073 27.2275 90.1699 27.2927C90.7892 27.7103 90.946 28.2309 90.6817 28.9629C90.5637 29.2906 90.5108 29.6509 90.347 29.9513C90.0519 30.4904 89.4546 30.5512 88.9393 30.6358C87.3122 30.901 85.6798 31.1555 84.0396 31.3132C83.282 31.3863 82.5024 31.2251 81.7104 31.1688C81.7104 32.2496 81.5968 33.3904 81.7386 34.4978C81.9245 35.9504 82.2654 37.3889 82.6292 38.8107C82.8785 39.7868 83.4185 40.0828 84.4219 40.17C86.352 40.3391 88.1623 39.8784 89.9426 39.2169C91.53 38.6266 93.017 37.8409 94.4168 36.8886C94.6062 36.7591 94.7815 36.6093 95.0211 36.4252C94.4547 36.1495 93.9411 35.9319 93.4584 35.6579C92.803 35.2862 92.1669 34.8801 91.5318 34.4748C91.2244 34.2784 91.2032 34.03 91.4279 33.7313C91.538 33.586 91.5494 33.3649 91.6631 33.2239C91.8216 33.0284 92.0066 32.8187 92.2277 32.7157C92.9827 32.3624 93.6927 32.6927 94.4001 32.9341C95.7162 33.3834 97.0155 33.8943 98.3528 34.2705C99.1121 34.4845 99.7869 34.7893 100.421 35.2395C101.085 35.7117 101.201 36.4102 101.247 37.1326C101.336 38.557 100.859 39.8863 100.514 41.2359C100.382 41.7548 100.221 42.2666 100.102 42.7872C99.9675 43.3766 99.6081 43.7131 99.0302 43.8382C99.002 43.8443 98.965 43.8619 98.9456 43.8505C98.1105 43.3563 97.0129 43.7721 96.2245 43.0339C95.9531 42.7802 95.8474 42.6031 95.9743 42.2684C96.2201 41.62 96.4517 40.9664 96.738 40.1797C96.1698 40.4933 95.7232 40.7444 95.2722 40.9875C92.9712 42.227 90.5328 43.0955 87.9553 43.5025C85.2297 43.9333 82.6283 43.5272 80.2384 42.0569C79.0174 41.3055 78.3832 40.1956 78.1224 38.8169C77.7348 36.7688 77.4274 34.7074 77.4943 32.6223C77.5939 29.5205 77.7401 26.4179 78.3056 23.3541C78.4677 22.4793 78.6289 21.6037 78.7822 20.7272C78.8043 20.5986 78.821 20.3713 78.7655 20.344C78.5541 20.24 78.251 20.0797 78.0907 20.159C77.6502 20.3766 77.2706 20.2057 76.9147 20.0577C76.417 19.8507 75.965 19.5371 75.4876 19.2798C75.137 19.0904 75.0859 18.8138 75.3035 18.5222C75.5986 18.1267 75.7052 17.6625 75.8954 17.2299C76.0329 16.9172 76.4205 16.6353 76.7596 16.5049C78.4774 15.846 80.3089 15.7007 82.1086 15.4223C84.229 15.0937 86.3573 14.8153 88.4776 14.4832C89.8316 14.2709 91.1697 13.9467 92.5281 13.7847C93.047 13.723 93.6302 13.9053 94.1332 14.1044C94.571 14.2771 94.948 14.6162 95.3294 14.9096C95.4404 14.995 95.5004 15.173 95.5418 15.3201C95.7858 16.1966 95.4114 16.9947 95.177 17.7981C94.9665 18.5196 94.2768 18.6456 93.6636 18.7363C91.7503 19.0182 89.8307 19.2561 87.9121 19.4974C86.0375 19.7326 84.1602 19.9511 82.2839 20.1775C82.2416 20.181 82.2011 20.1942 82.1209 20.2127Z" fill="#F86624"/>
<path d="M36.7641 32.2717C36.6918 29.7734 37.3111 27.431 38.3532 25.182C38.5127 24.8376 38.6492 24.4834 38.8078 24.139C39.8385 21.9015 41.6461 20.6435 44.0043 20.1907C45.7776 19.8498 47.454 20.2383 48.9331 21.2954C49.6431 21.8037 50.3417 22.3428 50.9698 22.948C52.0049 23.9452 52.4524 25.2719 52.7836 26.6241C53.2778 28.644 53.5606 30.7071 53.3914 32.78C53.2038 35.0906 52.6118 37.3114 51.1539 39.1904C49.9576 40.732 48.3693 41.6306 46.3978 41.5575C44.7126 41.4949 43.0503 41.2333 41.5933 40.2167C40.0666 39.1517 39.2623 37.655 38.902 35.9019C38.7699 35.2606 38.71 34.7612 37.933 34.5656C37.0592 34.3462 36.535 33.7622 36.7588 32.7553C36.7931 32.6003 36.7641 32.4329 36.7641 32.2717ZM48.8512 32.6443C48.786 30.3953 48.312 28.2476 47.587 26.1484C47.2902 25.2886 46.796 24.5469 46.071 23.984C45.9221 23.8686 45.7019 23.7681 45.5239 23.7831C44.3699 23.8765 43.4899 24.4905 42.8459 25.4014C41.7131 27.0038 41.3475 28.8405 41.336 30.7723C41.3343 31.1115 41.3951 31.3758 41.7166 31.5246C42.1597 31.7299 42.3059 32.1078 42.4187 32.5571C42.8389 34.237 43.4934 35.8112 44.547 37.2128C44.9654 37.7695 45.4764 37.8999 46.0833 37.7413C47.3483 37.411 48.0989 36.493 48.4512 35.3179C48.7085 34.4634 48.727 33.5376 48.8512 32.6443Z" fill="#F86624"/>
<path d="M47.3333 47.0976C44.7241 46.9584 42.2971 46.3329 40.1538 44.8495C39.3901 44.32 38.6466 43.7439 38.1744 42.8894C37.9815 42.5406 38.052 42.2278 38.2678 42.0279C38.5153 41.7979 38.8721 41.8675 39.154 42.0851C39.6394 42.4595 40.0975 42.8727 40.6057 43.2127C42.0557 44.1852 43.6018 44.9182 45.3715 45.1146C47.0699 45.304 48.7208 45.2291 50.302 44.4962C51.2808 44.0425 52.1106 43.4188 52.7255 42.5291C53.21 41.8279 54.0327 41.8693 54.5525 42.4472C54.8679 42.7978 54.7066 43.2409 54.5128 43.5985C54.0662 44.4187 53.4513 45.1023 52.6814 45.6379C51.5759 46.4069 50.3302 46.7892 49.008 46.9478C48.4433 47.0156 47.8734 47.05 47.3333 47.0976Z" fill="#F86624"/>
<path d="M92.692 7.22796C92.4277 7.73361 92.2727 8.35554 91.8789 8.72288C90.7337 9.78968 89.496 10.7569 88.2882 11.7559C87.8443 12.1232 87.3236 12.2633 86.7581 12.4122C85.9212 12.6333 85.516 12.0889 84.9804 11.7436C84.909 11.6969 84.9055 11.4581 84.9478 11.3357C85.2535 10.4574 85.8507 9.79761 86.5361 9.18537C87.5853 8.24806 88.5913 7.26232 89.6264 6.30916C90.3381 5.65375 91.2014 5.65375 92.0128 6.19199C92.3951 6.4457 92.6224 6.70998 92.5581 7.18479C92.603 7.19801 92.6479 7.21298 92.692 7.22796Z" fill="#F86624"/>
<path d="M32.6343 21.0857C32.6361 20.3493 32.8519 19.9714 33.2782 19.8762C33.3205 19.8665 33.3743 19.8322 33.4016 19.8472C33.9944 20.1713 34.7494 19.9458 35.3035 20.433C35.5202 20.6232 35.6144 20.7624 35.4224 21.0056C35.3599 21.0848 35.2779 21.1712 35.263 21.2637C35.1837 21.7684 34.922 21.994 34.3997 22.1199C33.8834 22.245 33.5434 22.0917 33.1576 21.8275C32.8536 21.6178 32.5788 21.4258 32.6343 21.0857Z" fill="#F86624"/>
<path d="M30.7526 18.1716C30.4382 18.9847 30.1351 19.0746 29.5687 18.6702C29.2947 18.4756 29.3476 18.2359 29.4136 18.0104C29.5009 17.7153 29.722 17.8439 29.9166 17.9109C30.1809 18.0016 30.4505 18.0783 30.7526 18.1716Z" fill="#F86624"/>
<path d="M63.1159 31.226C63.086 30.9212 63.0419 30.6472 63.0349 30.3715C62.9776 28.0987 62.9336 25.826 62.8693 23.5532C62.8605 23.2325 62.9494 23.059 63.271 23.0079C64.4215 22.8264 65.5684 22.6141 66.7242 22.4679C67.2712 22.3983 67.7531 22.6494 68.1354 23.0519C68.9001 23.8571 69.5326 24.7354 69.4454 25.9167C69.4198 26.2655 69.3106 26.6443 69.1273 26.9403C68.2561 28.3445 66.9753 29.3171 65.6133 30.2085C64.8558 30.7036 64.0656 31.0789 63.1159 31.226Z" fill="#FCFCFC"/>
<path d="M63.3423 42.4912C63.3423 41.1848 63.3608 39.926 63.337 38.668C63.315 37.5546 63.2569 36.4419 63.1899 35.3302C63.1661 34.9435 63.2111 34.7136 63.6771 34.6607C64.4717 34.57 65.2548 34.3771 66.0494 34.2819C66.7938 34.1938 67.3972 34.4837 67.9073 35.0536C69.167 36.4604 69.233 38.0778 68.8146 39.793C68.4473 41.2967 66.814 42.4674 65.1614 42.4903C64.5782 42.4983 63.996 42.4912 63.3423 42.4912Z" fill="#FCFCFC"/>
<path d="M48.8512 32.6443C48.727 33.5376 48.7093 34.4634 48.4521 35.317C48.0989 36.4922 47.3492 37.411 46.0842 37.7404C45.4772 37.899 44.9663 37.7686 44.5479 37.2119C43.4943 35.8112 42.8398 34.237 42.4196 32.5562C42.3068 32.1069 42.1606 31.729 41.7175 31.5238C41.3959 31.3749 41.3352 31.1106 41.3369 30.7715C41.3484 28.8396 41.7139 27.0029 42.8468 25.4005C43.4908 24.4896 44.3708 23.8756 45.5248 23.7822C45.7028 23.7681 45.923 23.8686 46.0719 23.9831C46.7977 24.5451 47.2911 25.2877 47.5879 26.1475C48.312 28.2476 48.786 30.3953 48.8512 32.6443Z" fill="#FCFCFC"/>
</svg>
