<svg width="451" height="449" viewBox="0 0 451 449" fill="none" xmlns="http://www.w3.org/2000/svg">
<g filter="url(#filter0_d_10_2226)">
<path d="M117.964 35.8446L131.038 58.7247L118.291 66.8961L108.158 71.799L100.64 70.1647L92.4688 62.647L68.2812 65.5887L69.5887 73.4333L66.3201 79.9704L73.8378 90.7568V97.6208L71.8767 111.349L69.5887 123.769H60.7635L54.2264 127.692L46.7086 129.98L43.1132 137.497L38.5372 141.42V145.669L35.2686 150.245L32 154.167V160.704L35.2686 166.261L43.1132 175.086L52.9189 182.931L59.4561 179.335L63.7052 175.086L66.3201 179.335V184.892V189.795L75.799 192.41L82.663 189.795L95.4105 184.892L105.87 179.335L110.446 175.086H114.695L118.291 176.72V181.296L120.252 192.41L123.193 198.293L130.711 202.215L137.575 206.138L149.669 209.079L161.436 214.963L166.339 219.539V224.442V234.901L170.915 239.477H178.759L186.277 241.765L190.853 246.341L193.795 253.859V260.723L192.487 270.856L189.546 285.237V291.121L192.487 296.024L199.678 296.677L206.542 294.716L209.484 296.024L211.772 298.638V304.522V313.02V315.308H218.309H223.212L224.846 317.596V322.499L222.558 330.997L225.5 334.593L228.115 341.13L226.481 347.013L218.309 354.858L208.177 362.703L198.698 370.547L197.063 376.104L201.312 381.334L211.772 385.91L224.846 394.408L228.115 400.618V411.078L233.018 412.385L242.17 402.579L250.014 392.447L255.571 384.275L258.84 377.411L268.318 369.24L274.202 358.454V345.706L277.144 333.612L288.257 325.114L300.677 317.596L306.888 314.328L315.059 311.386H319.962H333.69L345.457 301.907L353.302 291.121L360.819 279.354L369.971 261.704L372.913 251.571V236.535V226.403L375.201 213.982L385.007 212.021L392.524 203.85L397.754 196.332L405.272 185.546L414.424 175.74L418.673 165.934L417.039 148.284L409.521 139.132L393.832 132.921L379.45 118.213L368.664 114.617L350.36 108.734H334.017H323.557V100.889L311.137 93.0448L296.101 86.5076L281.393 80.951L269.299 61.3395L258.513 56.1098C258.513 56.1098 253.61 39.1132 250.995 35.8446C248.38 32.576 240.043 58.9049 227.134 58.7247C221.322 58.6435 213.079 53.8218 213.079 53.8218L198.044 58.7247L173.53 65.9155L170.915 35.8446L161.763 28L139.863 39.7669L117.964 35.8446Z" fill="#D1D2D1" fill-opacity="0.75"/>
<path d="M117.964 38.4589L131.038 61.3389L118.291 69.5104L108.158 74.4132L100.64 72.7789L92.4688 65.2612L68.2812 68.2029L67 77L66.3201 82.5847L73.8378 93.371V100.235L71.8767 113.963L69.5887 126.384H60.7635L54.2264 130.306L46.7086 132.594L43.1132 140.112L38.5372 144.034V148.283L35.2686 152.859L32 156.781V163.319L35.2686 168.875L43.1132 177.7L52.9189 185.545L59.4561 181.95L63.7052 177.7L66.3201 181.95V187.506V192.409L75.799 195.024L82.663 192.409L95.4105 187.506L105.87 181.95L110.446 177.7H114.695L118.291 179.335V183.911L120.252 195.024L123.193 200.907L130.711 204.83L137.575 208.752L149.669 211.694L161.436 217.577L166.339 222.153V227.056V237.515L170.915 242.091H178.759L186.277 244.379L190.853 248.955L193.795 256.473V263.337L192.487 273.47L189.546 287.852V293.735L192.487 298.638L199.678 299.292L206.542 297.33L209.484 298.638L211.772 301.253V307.136V315.634V317.923H218.309H223.212L224.846 320.211V325.113L222.558 333.612L225.5 337.207L228.115 343.744L226.481 349.628L218.309 357.472L208.177 365.317L198.698 373.162L197.063 378.718L201.312 383.948L211.772 388.524L224.846 397.022L228.115 403.232V413.692L233.018 414.999L242.17 405.194L250.014 395.061L255.571 386.89L258.84 380.026L268.318 371.854L274.202 361.068V348.32L277.144 336.227L288.257 327.728L300.677 320.211L306.888 316.942L315.059 314H319.962H333.69L345.457 304.521L353.302 293.735L360.819 281.968L369.971 264.318L372.913 254.185V239.15V229.017L375.201 216.596L385.007 214.635L392.524 206.464L397.754 198.946L405.272 188.16L414.424 178.354L418.673 168.548L417.039 150.898L409.521 141.746L393.832 135.536L379.45 120.827L368.664 117.232L350.36 111.348H334.017H323.557V103.504L311.137 95.659L296.101 89.1219L281.393 83.5653L269.299 63.9538L258.513 58.7241C258.513 58.7241 253.61 41.7274 250.995 38.4589C248.38 35.1903 240.043 61.5191 227.134 61.3389C221.322 61.2578 213.079 56.436 213.079 56.436L198.044 61.3389L173.53 68.5298L170.915 38.4589L161.763 30.6143L139.863 42.3811L117.964 38.4589Z" stroke="#252A27" stroke-width="3"/>
</g>
<path d="M141.623 77.8122L130.233 61L121.081 68.8446L107.68 74.728L98.8548 72.1132L91.6639 65.9029C91.6639 65.9029 70.745 66.5566 68.7838 68.8446C66.8227 71.1326 66.0219 83.3145 66.0219 83.3145L73.033 93.6355L68.7838 125.391L60.0219 126.814L53.5219 131.314L46.0219 132.814C46.0219 132.814 41.001 142.388 39.0398 142.388C37.0786 142.388 108.273 176.708 109.968 177.035C111.663 177.361 133.402 156.929 133.402 156.929H141.623C141.623 156.929 148.869 163.765 150.501 165.17C152.133 166.575 178.78 165.17 178.78 165.17C178.78 165.17 185.145 153.828 185.685 152.643C186.225 151.459 182.726 145.72 182.726 145.72C182.726 145.72 206.391 102.871 204.757 101.547C203.123 100.223 185.685 93.6355 185.685 93.6355L178.78 77.8122H168.257L150.501 93.6355L141.623 77.8122Z" fill="#EA3546" stroke="#252A27" stroke-width="3"/>
<mask id="mask0_10_2226" style="mask-type:alpha" maskUnits="userSpaceOnUse" x="37" y="58" width="170" height="121">
<path d="M141.623 77.8122L130.233 61L121.081 68.8446L107.68 74.728L98.8548 72.1132L91.6639 65.9029C91.6639 65.9029 70.745 66.5566 68.7838 68.8446C66.8227 71.1326 66.0219 83.3145 66.0219 83.3145L73.033 93.6355L68.7838 125.391L60.0219 126.814L53.5219 131.314L46.0219 132.814C46.0219 132.814 41.001 142.388 39.0398 142.388C37.0786 142.388 108.273 176.708 109.968 177.035C111.663 177.361 133.402 156.929 133.402 156.929H141.623C141.623 156.929 148.869 163.765 150.501 165.17C152.133 166.575 178.78 165.17 178.78 165.17C178.78 165.17 185.145 153.828 185.685 152.643C186.225 151.459 182.726 145.72 182.726 145.72C182.726 145.72 206.391 102.871 204.757 101.547C203.123 100.223 185.685 93.6355 185.685 93.6355L178.78 77.8122H168.257L150.501 93.6355L141.623 77.8122Z" fill="#EA3546" stroke="#252A27" stroke-opacity="0.05" stroke-width="3"/>
</mask>
<g mask="url(#mask0_10_2226)">
<line x1="64.5156" y1="71.5597" x2="58.7275" y2="77.3478" stroke="#252A27" stroke-opacity="0.05" stroke-width="2" stroke-linecap="round"/>
<path d="M51.689 70.9111L57.9135 77.1357" stroke="#252A27" stroke-opacity="0.05" stroke-width="2" stroke-linecap="round"/>
<line x1="58.7251" y1="70.8252" x2="58.7251" y2="75.6156" stroke="#252A27" stroke-opacity="0.05" stroke-width="2" stroke-linecap="round"/>
<line x1="21.6978" y1="85.954" x2="38.6895" y2="68.9622" stroke="#252A27" stroke-opacity="0.05" stroke-width="2" stroke-linecap="round"/>
<path d="M56.704 87.8067C57.0946 88.1972 57.7277 88.1972 58.1182 87.8067C58.5088 87.4162 58.5088 86.783 58.1182 86.3925L56.704 87.8067ZM40.5126 68.7868L39.8054 68.0797L38.3912 69.4939L39.0983 70.201L40.5126 68.7868ZM58.1182 86.3925L40.5126 68.7868L39.0983 70.201L56.704 87.8067L58.1182 86.3925Z" fill="#252A27" fill-opacity="0.05"/>
<path d="M57.2062 85.8593L56.4991 86.5664L57.9133 87.9806L58.6204 87.2735L57.2062 85.8593ZM76.2261 69.6678C76.6166 69.2773 76.6166 68.6441 76.2261 68.2536C75.8356 67.8631 75.2024 67.8631 74.8119 68.2536L76.2261 69.6678ZM58.6204 87.2735L76.2261 69.6678L74.8119 68.2536L57.2062 85.8593L58.6204 87.2735Z" fill="#252A27" fill-opacity="0.05"/>
<path d="M92.8556 87.7432C93.2462 88.1338 93.8793 88.1338 94.2699 87.7432C94.6604 87.3527 94.6604 86.7196 94.2699 86.329L92.8556 87.7432ZM76.7279 68.7871L76.0208 68.08L74.6066 69.4942L75.3137 70.2013L76.7279 68.7871ZM94.2699 86.329L76.7279 68.7871L75.3137 70.2013L92.8556 87.7432L94.2699 86.329Z" fill="#252A27" fill-opacity="0.05"/>
<line x1="33.0151" y1="84.2667" x2="38.8032" y2="78.4786" stroke="#252A27" stroke-opacity="0.05" stroke-width="2" stroke-linecap="round"/>
<path d="M45.8418 84.9153L39.6172 78.6907" stroke="#252A27" stroke-opacity="0.05" stroke-width="2" stroke-linecap="round"/>
<line x1="38.8057" y1="85.0012" x2="38.8057" y2="80.2108" stroke="#252A27" stroke-opacity="0.05" stroke-width="2" stroke-linecap="round"/>
<line x1="69.2307" y1="84.6681" x2="75.0188" y2="78.88" stroke="#252A27" stroke-opacity="0.05" stroke-width="2" stroke-linecap="round"/>
<path d="M82.0574 85.3167L75.8328 79.0921" stroke="#252A27" stroke-opacity="0.05" stroke-width="2" stroke-linecap="round"/>
<line x1="75.0212" y1="85.4016" x2="75.0212" y2="80.6112" stroke="#252A27" stroke-opacity="0.05" stroke-width="2" stroke-linecap="round"/>
<line x1="100.165" y1="71.8566" x2="94.3769" y2="77.6447" stroke="#252A27" stroke-opacity="0.05" stroke-width="2" stroke-linecap="round"/>
<path d="M87.3381 71.208L93.5627 77.4326" stroke="#252A27" stroke-opacity="0.05" stroke-width="2" stroke-linecap="round"/>
<line x1="94.3745" y1="71.1221" x2="94.3745" y2="75.9125" stroke="#252A27" stroke-opacity="0.05" stroke-width="2" stroke-linecap="round"/>
<path d="M93.5631 86.8643L111.169 69.2586" stroke="#252A27" stroke-opacity="0.05" stroke-width="2" stroke-linecap="round"/>
<path d="M128.569 88.1046C128.96 88.4951 129.593 88.4951 129.984 88.1046C130.374 87.714 130.374 87.0809 129.984 86.6904L128.569 88.1046ZM112.378 69.0847L111.671 68.3776L110.257 69.7918L110.964 70.4989L112.378 69.0847ZM129.984 86.6904L112.378 69.0847L110.964 70.4989L128.569 88.1046L129.984 86.6904Z" fill="#252A27" fill-opacity="0.05"/>
<line x1="104.88" y1="84.9659" x2="110.668" y2="79.1778" stroke="#252A27" stroke-opacity="0.05" stroke-width="2" stroke-linecap="round"/>
<path d="M117.707 85.6145L111.482 79.39" stroke="#252A27" stroke-opacity="0.05" stroke-width="2" stroke-linecap="round"/>
<line x1="110.671" y1="85.6995" x2="110.671" y2="80.909" stroke="#252A27" stroke-opacity="0.05" stroke-width="2" stroke-linecap="round"/>
<line x1="135.815" y1="72.424" x2="130.027" y2="78.2121" stroke="#252A27" stroke-opacity="0.05" stroke-width="2" stroke-linecap="round"/>
<path d="M122.988 71.7754L129.213 77.9999" stroke="#252A27" stroke-opacity="0.05" stroke-width="2" stroke-linecap="round"/>
<line x1="130.024" y1="71.6895" x2="130.024" y2="76.4799" stroke="#252A27" stroke-opacity="0.05" stroke-width="2" stroke-linecap="round"/>
<path d="M129.213 87.4307L146.818 69.825" stroke="#252A27" stroke-opacity="0.05" stroke-width="2" stroke-linecap="round"/>
<path d="M164.219 88.671C164.609 89.0615 165.243 89.0615 165.633 88.671C166.024 88.2804 166.024 87.6473 165.633 87.2568L164.219 88.671ZM148.027 69.6511L147.32 68.944L145.906 70.3582L146.613 71.0653L148.027 69.6511ZM165.633 87.2568L148.027 69.6511L146.613 71.0653L164.219 88.671L165.633 87.2568Z" fill="#252A27" fill-opacity="0.05"/>
<line x1="140.53" y1="85.5301" x2="146.318" y2="79.742" stroke="#252A27" stroke-opacity="0.05" stroke-width="2" stroke-linecap="round"/>
<path d="M153.357 86.1787L147.132 79.9542" stroke="#252A27" stroke-opacity="0.05" stroke-width="2" stroke-linecap="round"/>
<line x1="146.321" y1="86.2646" x2="146.321" y2="81.4742" stroke="#252A27" stroke-opacity="0.05" stroke-width="2" stroke-linecap="round"/>
<line x1="171.465" y1="72.9884" x2="165.676" y2="78.7765" stroke="#252A27" stroke-opacity="0.05" stroke-width="2" stroke-linecap="round"/>
<path d="M158.638 72.3398L164.862 78.5644" stroke="#252A27" stroke-opacity="0.05" stroke-width="2" stroke-linecap="round"/>
<line x1="165.674" y1="72.2549" x2="165.674" y2="77.0453" stroke="#252A27" stroke-opacity="0.05" stroke-width="2" stroke-linecap="round"/>
<line x1="207.68" y1="73.256" x2="201.892" y2="79.0441" stroke="#252A27" stroke-opacity="0.05" stroke-width="2" stroke-linecap="round"/>
<path d="M194.854 72.6074L201.078 78.832" stroke="#252A27" stroke-opacity="0.05" stroke-width="2" stroke-linecap="round"/>
<line x1="201.89" y1="72.5225" x2="201.89" y2="77.3129" stroke="#252A27" stroke-opacity="0.05" stroke-width="2" stroke-linecap="round"/>
<path d="M164.862 87.9961L182.468 70.3904" stroke="#252A27" stroke-opacity="0.05" stroke-width="2" stroke-linecap="round"/>
<path d="M199.869 89.2364C200.259 89.6269 200.892 89.6269 201.283 89.2364C201.673 88.8459 201.673 88.2127 201.283 87.8222L199.869 89.2364ZM183.677 70.2165L182.97 69.5094L181.556 70.9236L182.263 71.6307L183.677 70.2165ZM201.283 87.8222L183.677 70.2165L182.263 71.6307L199.869 89.2364L201.283 87.8222Z" fill="#252A27" fill-opacity="0.05"/>
<line x1="176.18" y1="86.0968" x2="181.968" y2="80.3087" stroke="#252A27" stroke-opacity="0.05" stroke-width="2" stroke-linecap="round"/>
<path d="M189.006 86.7454L182.782 80.5208" stroke="#252A27" stroke-opacity="0.05" stroke-width="2" stroke-linecap="round"/>
<line x1="181.97" y1="86.8313" x2="181.97" y2="82.0409" stroke="#252A27" stroke-opacity="0.05" stroke-width="2" stroke-linecap="round"/>
<line x1="64.8179" y1="94.5988" x2="59.0298" y2="100.387" stroke="#252A27" stroke-opacity="0.05" stroke-width="2" stroke-linecap="round"/>
<path d="M51.9912 93.9502L58.2158 100.175" stroke="#252A27" stroke-opacity="0.05" stroke-width="2" stroke-linecap="round"/>
<line x1="59.0273" y1="93.8643" x2="59.0273" y2="98.6547" stroke="#252A27" stroke-opacity="0.05" stroke-width="2" stroke-linecap="round"/>
<line x1="22" y1="108.993" x2="38.9917" y2="92.0013" stroke="#252A27" stroke-opacity="0.05" stroke-width="2" stroke-linecap="round"/>
<path d="M57.0063 110.846C57.3968 111.236 58.03 111.236 58.4205 110.846C58.811 110.455 58.811 109.822 58.4205 109.432L57.0063 110.846ZM40.8148 91.8259L40.1077 91.1188L38.6935 92.533L39.4006 93.2401L40.8148 91.8259ZM58.4205 109.432L40.8148 91.8259L39.4006 93.2401L57.0063 110.846L58.4205 109.432Z" fill="#252A27" fill-opacity="0.05"/>
<path d="M57.5085 108.898L56.8014 109.605L58.2156 111.02L58.9227 110.313L57.5085 108.898ZM76.5284 92.7069C76.9189 92.3164 76.9189 91.6832 76.5284 91.2927C76.1378 90.9021 75.5047 90.9022 75.1142 91.2927L76.5284 92.7069ZM58.9227 110.313L76.5284 92.7069L75.1142 91.2927L57.5085 108.898L58.9227 110.313Z" fill="#252A27" fill-opacity="0.05"/>
<path d="M93.1579 110.782C93.5484 111.173 94.1816 111.173 94.5721 110.782C94.9626 110.392 94.9626 109.759 94.5721 109.368L93.1579 110.782ZM77.0302 91.8262L76.3231 91.1191L74.9089 92.5333L75.616 93.2404L77.0302 91.8262ZM94.5721 109.368L77.0302 91.8262L75.616 93.2404L93.1579 110.782L94.5721 109.368Z" fill="#252A27" fill-opacity="0.05"/>
<line x1="33.3174" y1="107.306" x2="39.1055" y2="101.518" stroke="#252A27" stroke-opacity="0.05" stroke-width="2" stroke-linecap="round"/>
<path d="M46.144 107.954L39.9195 101.73" stroke="#252A27" stroke-opacity="0.05" stroke-width="2" stroke-linecap="round"/>
<line x1="39.1079" y1="108.04" x2="39.1079" y2="103.25" stroke="#252A27" stroke-opacity="0.05" stroke-width="2" stroke-linecap="round"/>
<line x1="69.533" y1="107.707" x2="75.3211" y2="101.919" stroke="#252A27" stroke-opacity="0.05" stroke-width="2" stroke-linecap="round"/>
<path d="M82.3596 108.356L76.1351 102.131" stroke="#252A27" stroke-opacity="0.05" stroke-width="2" stroke-linecap="round"/>
<line x1="75.3235" y1="108.441" x2="75.3235" y2="103.65" stroke="#252A27" stroke-opacity="0.05" stroke-width="2" stroke-linecap="round"/>
<line x1="100.467" y1="94.8957" x2="94.6792" y2="100.684" stroke="#252A27" stroke-opacity="0.05" stroke-width="2" stroke-linecap="round"/>
<path d="M87.6404 94.2471L93.8649 100.472" stroke="#252A27" stroke-opacity="0.05" stroke-width="2" stroke-linecap="round"/>
<line x1="94.6768" y1="94.1611" x2="94.6768" y2="98.9516" stroke="#252A27" stroke-opacity="0.05" stroke-width="2" stroke-linecap="round"/>
<path d="M93.8654 109.903L111.471 92.2976" stroke="#252A27" stroke-opacity="0.05" stroke-width="2" stroke-linecap="round"/>
<path d="M128.872 111.144C129.262 111.534 129.895 111.534 130.286 111.144C130.676 110.753 130.676 110.12 130.286 109.729L128.872 111.144ZM112.68 92.1237L111.973 91.4166L110.559 92.8308L111.266 93.5379L112.68 92.1237ZM130.286 109.729L112.68 92.1237L111.266 93.5379L128.872 111.144L130.286 109.729Z" fill="#252A27" fill-opacity="0.05"/>
<line x1="105.183" y1="108.005" x2="110.971" y2="102.217" stroke="#252A27" stroke-opacity="0.05" stroke-width="2" stroke-linecap="round"/>
<path d="M118.009 108.654L111.785 102.429" stroke="#252A27" stroke-opacity="0.05" stroke-width="2" stroke-linecap="round"/>
<line x1="110.973" y1="108.739" x2="110.973" y2="103.948" stroke="#252A27" stroke-opacity="0.05" stroke-width="2" stroke-linecap="round"/>
<line x1="136.117" y1="95.463" x2="130.329" y2="101.251" stroke="#252A27" stroke-opacity="0.05" stroke-width="2" stroke-linecap="round"/>
<path d="M123.291 94.8145L129.515 101.039" stroke="#252A27" stroke-opacity="0.05" stroke-width="2" stroke-linecap="round"/>
<line x1="130.327" y1="94.7285" x2="130.327" y2="99.5189" stroke="#252A27" stroke-opacity="0.05" stroke-width="2" stroke-linecap="round"/>
<path d="M129.515 110.47L147.121 92.864" stroke="#252A27" stroke-opacity="0.05" stroke-width="2" stroke-linecap="round"/>
<path d="M164.521 111.71C164.912 112.101 165.545 112.101 165.935 111.71C166.326 111.32 166.326 110.686 165.935 110.296L164.521 111.71ZM148.33 92.6901L147.623 91.983L146.208 93.3972L146.915 94.1043L148.33 92.6901ZM165.935 110.296L148.33 92.6901L146.915 94.1043L164.521 111.71L165.935 110.296Z" fill="#252A27" fill-opacity="0.05"/>
<line x1="140.833" y1="108.569" x2="146.621" y2="102.781" stroke="#252A27" stroke-opacity="0.05" stroke-width="2" stroke-linecap="round"/>
<path d="M153.659 109.218L147.435 102.993" stroke="#252A27" stroke-opacity="0.05" stroke-width="2" stroke-linecap="round"/>
<line x1="146.623" y1="109.304" x2="146.623" y2="104.513" stroke="#252A27" stroke-opacity="0.05" stroke-width="2" stroke-linecap="round"/>
<line x1="171.767" y1="96.0275" x2="165.979" y2="101.816" stroke="#252A27" stroke-opacity="0.05" stroke-width="2" stroke-linecap="round"/>
<path d="M158.94 95.3789L165.165 101.603" stroke="#252A27" stroke-opacity="0.05" stroke-width="2" stroke-linecap="round"/>
<line x1="165.976" y1="95.2939" x2="165.976" y2="100.084" stroke="#252A27" stroke-opacity="0.05" stroke-width="2" stroke-linecap="round"/>
<line x1="207.982" y1="96.2951" x2="202.194" y2="102.083" stroke="#252A27" stroke-opacity="0.05" stroke-width="2" stroke-linecap="round"/>
<path d="M195.156 95.6465L201.38 101.871" stroke="#252A27" stroke-opacity="0.05" stroke-width="2" stroke-linecap="round"/>
<line x1="202.192" y1="95.5615" x2="202.192" y2="100.352" stroke="#252A27" stroke-opacity="0.05" stroke-width="2" stroke-linecap="round"/>
<path d="M165.165 111.035L182.77 93.4295" stroke="#252A27" stroke-opacity="0.05" stroke-width="2" stroke-linecap="round"/>
<path d="M200.171 112.275C200.561 112.666 201.195 112.666 201.585 112.275C201.976 111.885 201.976 111.252 201.585 110.861L200.171 112.275ZM183.979 93.2556L183.272 92.5485L181.858 93.9627L182.565 94.6698L183.979 93.2556ZM201.585 110.861L183.979 93.2556L182.565 94.6698L200.171 112.275L201.585 110.861Z" fill="#252A27" fill-opacity="0.05"/>
<line x1="176.482" y1="109.136" x2="182.27" y2="103.348" stroke="#252A27" stroke-opacity="0.05" stroke-width="2" stroke-linecap="round"/>
<path d="M189.309 109.784L183.084 103.56" stroke="#252A27" stroke-opacity="0.05" stroke-width="2" stroke-linecap="round"/>
<line x1="182.272" y1="109.87" x2="182.272" y2="105.08" stroke="#252A27" stroke-opacity="0.05" stroke-width="2" stroke-linecap="round"/>
<line x1="65.1201" y1="117.638" x2="59.332" y2="123.426" stroke="#252A27" stroke-opacity="0.05" stroke-width="2" stroke-linecap="round"/>
<path d="M52.2935 116.989L58.518 123.214" stroke="#252A27" stroke-opacity="0.05" stroke-width="2" stroke-linecap="round"/>
<line x1="59.3296" y1="116.903" x2="59.3296" y2="121.694" stroke="#252A27" stroke-opacity="0.05" stroke-width="2" stroke-linecap="round"/>
<line x1="22.3022" y1="132.032" x2="39.294" y2="115.04" stroke="#252A27" stroke-opacity="0.05" stroke-width="2" stroke-linecap="round"/>
<path d="M57.3085 133.885C57.699 134.275 58.3322 134.275 58.7227 133.885C59.1133 133.494 59.1133 132.861 58.7227 132.471L57.3085 133.885ZM41.117 114.865L40.4099 114.158L38.9957 115.572L39.7028 116.279L41.117 114.865ZM58.7227 132.471L41.117 114.865L39.7028 116.279L57.3085 133.885L58.7227 132.471Z" fill="#252A27" fill-opacity="0.05"/>
<path d="M57.8107 131.937L57.1036 132.645L58.5178 134.059L59.2249 133.352L57.8107 131.937ZM76.8306 115.746C77.2211 115.355 77.2211 114.722 76.8306 114.332C76.4401 113.941 75.8069 113.941 75.4164 114.332L76.8306 115.746ZM59.2249 133.352L76.8306 115.746L75.4164 114.332L57.8107 131.937L59.2249 133.352Z" fill="#252A27" fill-opacity="0.05"/>
<path d="M93.4601 133.821C93.8507 134.212 94.4838 134.212 94.8743 133.821C95.2649 133.431 95.2649 132.798 94.8743 132.407L93.4601 133.821ZM77.3324 114.865L76.6253 114.158L75.2111 115.572L75.9182 116.279L77.3324 114.865ZM94.8743 132.407L77.3324 114.865L75.9182 116.279L93.4601 133.821L94.8743 132.407Z" fill="#252A27" fill-opacity="0.05"/>
<line x1="33.6196" y1="130.345" x2="39.4077" y2="124.557" stroke="#252A27" stroke-opacity="0.05" stroke-width="2" stroke-linecap="round"/>
<path d="M46.4463 130.993L40.2217 124.769" stroke="#252A27" stroke-opacity="0.05" stroke-width="2" stroke-linecap="round"/>
<line x1="39.4102" y1="131.079" x2="39.4102" y2="126.289" stroke="#252A27" stroke-opacity="0.05" stroke-width="2" stroke-linecap="round"/>
<line x1="69.8352" y1="130.746" x2="75.6233" y2="124.958" stroke="#252A27" stroke-opacity="0.05" stroke-width="2" stroke-linecap="round"/>
<path d="M82.6619 131.395L76.4373 125.17" stroke="#252A27" stroke-opacity="0.05" stroke-width="2" stroke-linecap="round"/>
<line x1="75.6257" y1="131.48" x2="75.6257" y2="126.689" stroke="#252A27" stroke-opacity="0.05" stroke-width="2" stroke-linecap="round"/>
<line x1="100.77" y1="117.935" x2="94.9814" y2="123.723" stroke="#252A27" stroke-opacity="0.05" stroke-width="2" stroke-linecap="round"/>
<path d="M87.9426 117.286L94.1672 123.511" stroke="#252A27" stroke-opacity="0.05" stroke-width="2" stroke-linecap="round"/>
<line x1="94.979" y1="117.2" x2="94.979" y2="121.991" stroke="#252A27" stroke-opacity="0.05" stroke-width="2" stroke-linecap="round"/>
<path d="M94.1676 132.942L111.773 115.337" stroke="#252A27" stroke-opacity="0.05" stroke-width="2" stroke-linecap="round"/>
<path d="M129.174 134.183C129.564 134.573 130.198 134.573 130.588 134.183C130.979 133.792 130.979 133.159 130.588 132.768L129.174 134.183ZM112.982 115.163L112.275 114.456L110.861 115.87L111.568 116.577L112.982 115.163ZM130.588 132.768L112.982 115.163L111.568 116.577L129.174 134.183L130.588 132.768Z" fill="#252A27" fill-opacity="0.05"/>
<line x1="105.485" y1="131.044" x2="111.273" y2="125.256" stroke="#252A27" stroke-opacity="0.05" stroke-width="2" stroke-linecap="round"/>
<path d="M118.312 131.693L112.087 125.468" stroke="#252A27" stroke-opacity="0.05" stroke-width="2" stroke-linecap="round"/>
<line x1="111.275" y1="131.778" x2="111.275" y2="126.987" stroke="#252A27" stroke-opacity="0.05" stroke-width="2" stroke-linecap="round"/>
<line x1="136.419" y1="118.502" x2="130.631" y2="124.29" stroke="#252A27" stroke-opacity="0.05" stroke-width="2" stroke-linecap="round"/>
<path d="M123.593 117.854L129.817 124.078" stroke="#252A27" stroke-opacity="0.05" stroke-width="2" stroke-linecap="round"/>
<line x1="130.629" y1="117.768" x2="130.629" y2="122.558" stroke="#252A27" stroke-opacity="0.05" stroke-width="2" stroke-linecap="round"/>
<path d="M129.817 133.509L147.423 115.903" stroke="#252A27" stroke-opacity="0.05" stroke-width="2" stroke-linecap="round"/>
<path d="M164.823 134.749C165.214 135.14 165.847 135.14 166.238 134.749C166.628 134.359 166.628 133.725 166.238 133.335L164.823 134.749ZM148.632 115.729L147.925 115.022L146.511 116.436L147.218 117.143L148.632 115.729ZM166.238 133.335L148.632 115.729L147.218 117.143L164.823 134.749L166.238 133.335Z" fill="#252A27" fill-opacity="0.05"/>
<line x1="141.135" y1="131.608" x2="146.923" y2="125.82" stroke="#252A27" stroke-opacity="0.05" stroke-width="2" stroke-linecap="round"/>
<path d="M153.961 132.257L147.737 126.032" stroke="#252A27" stroke-opacity="0.05" stroke-width="2" stroke-linecap="round"/>
<line x1="146.925" y1="132.343" x2="146.925" y2="127.552" stroke="#252A27" stroke-opacity="0.05" stroke-width="2" stroke-linecap="round"/>
<line x1="172.069" y1="119.067" x2="166.281" y2="124.855" stroke="#252A27" stroke-opacity="0.05" stroke-width="2" stroke-linecap="round"/>
<path d="M159.242 118.418L165.467 124.643" stroke="#252A27" stroke-opacity="0.05" stroke-width="2" stroke-linecap="round"/>
<line x1="166.279" y1="118.333" x2="166.279" y2="123.123" stroke="#252A27" stroke-opacity="0.05" stroke-width="2" stroke-linecap="round"/>
<line x1="208.285" y1="119.334" x2="202.497" y2="125.122" stroke="#252A27" stroke-opacity="0.05" stroke-width="2" stroke-linecap="round"/>
<path d="M195.458 118.686L201.683 124.91" stroke="#252A27" stroke-opacity="0.05" stroke-width="2" stroke-linecap="round"/>
<line x1="202.494" y1="118.601" x2="202.494" y2="123.391" stroke="#252A27" stroke-opacity="0.05" stroke-width="2" stroke-linecap="round"/>
<path d="M165.467 134.074L183.072 116.469" stroke="#252A27" stroke-opacity="0.05" stroke-width="2" stroke-linecap="round"/>
<path d="M200.473 135.315C200.864 135.705 201.497 135.705 201.887 135.315C202.278 134.924 202.278 134.291 201.887 133.9L200.473 135.315ZM184.282 116.295L183.574 115.588L182.16 117.002L182.867 117.709L184.282 116.295ZM201.887 133.9L184.282 116.295L182.867 117.709L200.473 135.315L201.887 133.9Z" fill="#252A27" fill-opacity="0.05"/>
<line x1="176.784" y1="132.175" x2="182.572" y2="126.387" stroke="#252A27" stroke-opacity="0.05" stroke-width="2" stroke-linecap="round"/>
<path d="M189.611 132.823L183.386 126.599" stroke="#252A27" stroke-opacity="0.05" stroke-width="2" stroke-linecap="round"/>
<line x1="182.575" y1="132.909" x2="182.575" y2="128.119" stroke="#252A27" stroke-opacity="0.05" stroke-width="2" stroke-linecap="round"/>
<line x1="65.4226" y1="140.677" x2="59.6345" y2="146.465" stroke="#252A27" stroke-opacity="0.05" stroke-width="2" stroke-linecap="round"/>
<path d="M52.5959 140.028L58.8205 146.253" stroke="#252A27" stroke-opacity="0.05" stroke-width="2" stroke-linecap="round"/>
<line x1="59.6321" y1="139.942" x2="59.6321" y2="144.733" stroke="#252A27" stroke-opacity="0.05" stroke-width="2" stroke-linecap="round"/>
<line x1="22.6047" y1="155.071" x2="39.5965" y2="138.079" stroke="#252A27" stroke-opacity="0.05" stroke-width="2" stroke-linecap="round"/>
<path d="M57.611 156.924C58.0015 157.314 58.6347 157.314 59.0252 156.924C59.4157 156.533 59.4157 155.9 59.0252 155.51L57.611 156.924ZM41.4195 137.904L40.7124 137.197L39.2982 138.611L40.0053 139.318L41.4195 137.904ZM59.0252 155.51L41.4195 137.904L40.0053 139.318L57.611 156.924L59.0252 155.51Z" fill="#252A27" fill-opacity="0.05"/>
<path d="M58.1132 154.976L57.4061 155.684L58.8203 157.098L59.5274 156.391L58.1132 154.976ZM77.1331 138.785C77.5236 138.394 77.5236 137.761 77.1331 137.371C76.7426 136.98 76.1094 136.98 75.7189 137.371L77.1331 138.785ZM59.5274 156.391L77.1331 138.785L75.7189 137.371L58.1132 154.976L59.5274 156.391Z" fill="#252A27" fill-opacity="0.05"/>
<path d="M93.7626 156.86C94.1531 157.251 94.7863 157.251 95.1768 156.86C95.5674 156.47 95.5674 155.837 95.1768 155.446L93.7626 156.86ZM77.6349 137.904L76.9278 137.197L75.5136 138.611L76.2207 139.319L77.6349 137.904ZM95.1768 155.446L77.6349 137.904L76.2207 139.319L93.7626 156.86L95.1768 155.446Z" fill="#252A27" fill-opacity="0.05"/>
<line x1="33.9221" y1="153.384" x2="39.7102" y2="147.596" stroke="#252A27" stroke-opacity="0.05" stroke-width="2" stroke-linecap="round"/>
<path d="M46.7488 154.032L40.5242 147.808" stroke="#252A27" stroke-opacity="0.05" stroke-width="2" stroke-linecap="round"/>
<line x1="39.7126" y1="154.118" x2="39.7126" y2="149.328" stroke="#252A27" stroke-opacity="0.05" stroke-width="2" stroke-linecap="round"/>
<line x1="70.1377" y1="153.785" x2="75.9258" y2="147.997" stroke="#252A27" stroke-opacity="0.05" stroke-width="2" stroke-linecap="round"/>
<path d="M82.9644 154.434L76.7398 148.209" stroke="#252A27" stroke-opacity="0.05" stroke-width="2" stroke-linecap="round"/>
<line x1="75.9282" y1="154.519" x2="75.9282" y2="149.728" stroke="#252A27" stroke-opacity="0.05" stroke-width="2" stroke-linecap="round"/>
<line x1="101.072" y1="140.974" x2="95.2839" y2="146.762" stroke="#252A27" stroke-opacity="0.05" stroke-width="2" stroke-linecap="round"/>
<path d="M88.2451 140.325L94.4697 146.55" stroke="#252A27" stroke-opacity="0.05" stroke-width="2" stroke-linecap="round"/>
<line x1="95.2815" y1="140.239" x2="95.2815" y2="145.03" stroke="#252A27" stroke-opacity="0.05" stroke-width="2" stroke-linecap="round"/>
<path d="M94.4701 155.981L112.076 138.376" stroke="#252A27" stroke-opacity="0.05" stroke-width="2" stroke-linecap="round"/>
<path d="M129.476 157.222C129.867 157.612 130.5 157.612 130.891 157.222C131.281 156.831 131.281 156.198 130.891 155.808L129.476 157.222ZM113.285 138.202L112.578 137.495L111.164 138.909L111.871 139.616L113.285 138.202ZM130.891 155.808L113.285 138.202L111.871 139.616L129.476 157.222L130.891 155.808Z" fill="#252A27" fill-opacity="0.05"/>
<line x1="105.787" y1="154.083" x2="111.575" y2="148.295" stroke="#252A27" stroke-opacity="0.05" stroke-width="2" stroke-linecap="round"/>
<path d="M118.614 154.732L112.389 148.507" stroke="#252A27" stroke-opacity="0.05" stroke-width="2" stroke-linecap="round"/>
<line x1="111.578" y1="154.817" x2="111.578" y2="150.026" stroke="#252A27" stroke-opacity="0.05" stroke-width="2" stroke-linecap="round"/>
<line x1="136.722" y1="141.541" x2="130.934" y2="147.329" stroke="#252A27" stroke-opacity="0.05" stroke-width="2" stroke-linecap="round"/>
<path d="M123.895 140.893L130.12 147.117" stroke="#252A27" stroke-opacity="0.05" stroke-width="2" stroke-linecap="round"/>
<line x1="130.931" y1="140.807" x2="130.931" y2="145.597" stroke="#252A27" stroke-opacity="0.05" stroke-width="2" stroke-linecap="round"/>
<path d="M130.12 156.548L147.725 138.942" stroke="#252A27" stroke-opacity="0.05" stroke-width="2" stroke-linecap="round"/>
<path d="M165.126 157.788C165.516 158.179 166.15 158.179 166.54 157.788C166.931 157.398 166.931 156.764 166.54 156.374L165.126 157.788ZM148.934 138.768L148.227 138.061L146.813 139.475L147.52 140.182L148.934 138.768ZM166.54 156.374L148.934 138.768L147.52 140.182L165.126 157.788L166.54 156.374Z" fill="#252A27" fill-opacity="0.05"/>
<line x1="141.437" y1="154.647" x2="147.225" y2="148.859" stroke="#252A27" stroke-opacity="0.05" stroke-width="2" stroke-linecap="round"/>
<path d="M154.264 155.296L148.039 149.071" stroke="#252A27" stroke-opacity="0.05" stroke-width="2" stroke-linecap="round"/>
<line x1="147.228" y1="155.382" x2="147.228" y2="150.591" stroke="#252A27" stroke-opacity="0.05" stroke-width="2" stroke-linecap="round"/>
<line x1="172.372" y1="142.106" x2="166.583" y2="147.894" stroke="#252A27" stroke-opacity="0.05" stroke-width="2" stroke-linecap="round"/>
<path d="M159.545 141.457L165.769 147.682" stroke="#252A27" stroke-opacity="0.05" stroke-width="2" stroke-linecap="round"/>
<line x1="166.581" y1="141.372" x2="166.581" y2="146.162" stroke="#252A27" stroke-opacity="0.05" stroke-width="2" stroke-linecap="round"/>
<line x1="208.587" y1="142.373" x2="202.799" y2="148.161" stroke="#252A27" stroke-opacity="0.05" stroke-width="2" stroke-linecap="round"/>
<path d="M195.76 141.725L201.985 147.949" stroke="#252A27" stroke-opacity="0.05" stroke-width="2" stroke-linecap="round"/>
<line x1="202.797" y1="141.64" x2="202.797" y2="146.43" stroke="#252A27" stroke-opacity="0.05" stroke-width="2" stroke-linecap="round"/>
<path d="M165.77 157.113L183.375 139.508" stroke="#252A27" stroke-opacity="0.05" stroke-width="2" stroke-linecap="round"/>
<path d="M200.776 158.354C201.166 158.744 201.799 158.744 202.19 158.354C202.581 157.963 202.581 157.33 202.19 156.939L200.776 158.354ZM184.584 139.334L183.877 138.627L182.463 140.041L183.17 140.748L184.584 139.334ZM202.19 156.939L184.584 139.334L183.17 140.748L200.776 158.354L202.19 156.939Z" fill="#252A27" fill-opacity="0.05"/>
<line x1="177.087" y1="155.214" x2="182.875" y2="149.426" stroke="#252A27" stroke-opacity="0.05" stroke-width="2" stroke-linecap="round"/>
<path d="M189.913 155.863L183.689 149.638" stroke="#252A27" stroke-opacity="0.05" stroke-width="2" stroke-linecap="round"/>
<line x1="182.877" y1="155.948" x2="182.877" y2="151.158" stroke="#252A27" stroke-opacity="0.05" stroke-width="2" stroke-linecap="round"/>
<line x1="65.7251" y1="163.716" x2="59.937" y2="169.504" stroke="#252A27" stroke-opacity="0.05" stroke-width="2" stroke-linecap="round"/>
<path d="M52.8984 163.067L59.123 169.292" stroke="#252A27" stroke-opacity="0.05" stroke-width="2" stroke-linecap="round"/>
<line x1="59.9346" y1="162.981" x2="59.9346" y2="167.772" stroke="#252A27" stroke-opacity="0.05" stroke-width="2" stroke-linecap="round"/>
<line x1="22.9072" y1="178.11" x2="39.899" y2="161.118" stroke="#252A27" stroke-opacity="0.05" stroke-width="2" stroke-linecap="round"/>
<path d="M57.9135 179.963C58.304 180.353 58.9372 180.353 59.3277 179.963C59.7182 179.572 59.7182 178.939 59.3277 178.549L57.9135 179.963ZM41.722 160.943L41.0149 160.236L39.6007 161.65L40.3078 162.357L41.722 160.943ZM59.3277 178.549L41.722 160.943L40.3078 162.357L57.9135 179.963L59.3277 178.549Z" fill="#252A27" fill-opacity="0.05"/>
<path d="M58.4157 178.016L57.7086 178.723L59.1228 180.137L59.8299 179.43L58.4157 178.016ZM77.4356 161.824C77.8261 161.434 77.8261 160.8 77.4356 160.41C77.0451 160.019 76.4119 160.019 76.0214 160.41L77.4356 161.824ZM59.8299 179.43L77.4356 161.824L76.0214 160.41L58.4157 178.016L59.8299 179.43Z" fill="#252A27" fill-opacity="0.05"/>
<path d="M94.0651 179.899C94.4556 180.29 95.0888 180.29 95.4793 179.899C95.8698 179.509 95.8698 178.876 95.4793 178.485L94.0651 179.899ZM77.9374 160.943L77.2303 160.236L75.8161 161.65L76.5232 162.358L77.9374 160.943ZM95.4793 178.485L77.9374 160.943L76.5232 162.358L94.0651 179.899L95.4793 178.485Z" fill="#252A27" fill-opacity="0.05"/>
<line x1="34.2246" y1="176.423" x2="40.0127" y2="170.635" stroke="#252A27" stroke-opacity="0.05" stroke-width="2" stroke-linecap="round"/>
<path d="M47.0513 177.072L40.8267 170.847" stroke="#252A27" stroke-opacity="0.05" stroke-width="2" stroke-linecap="round"/>
<line x1="40.0151" y1="177.157" x2="40.0151" y2="172.367" stroke="#252A27" stroke-opacity="0.05" stroke-width="2" stroke-linecap="round"/>
<line x1="70.4402" y1="176.824" x2="76.2283" y2="171.036" stroke="#252A27" stroke-opacity="0.05" stroke-width="2" stroke-linecap="round"/>
<path d="M83.2668 177.473L77.0423 171.248" stroke="#252A27" stroke-opacity="0.05" stroke-width="2" stroke-linecap="round"/>
<line x1="76.2307" y1="177.558" x2="76.2307" y2="172.767" stroke="#252A27" stroke-opacity="0.05" stroke-width="2" stroke-linecap="round"/>
<line x1="101.375" y1="164.013" x2="95.5864" y2="169.801" stroke="#252A27" stroke-opacity="0.05" stroke-width="2" stroke-linecap="round"/>
<path d="M88.5476 163.364L94.7722 169.589" stroke="#252A27" stroke-opacity="0.05" stroke-width="2" stroke-linecap="round"/>
<line x1="95.584" y1="163.278" x2="95.584" y2="168.069" stroke="#252A27" stroke-opacity="0.05" stroke-width="2" stroke-linecap="round"/>
<path d="M94.7726 179.021L112.378 161.415" stroke="#252A27" stroke-opacity="0.05" stroke-width="2" stroke-linecap="round"/>
<path d="M129.779 180.261C130.169 180.651 130.803 180.651 131.193 180.261C131.584 179.87 131.584 179.237 131.193 178.847L129.779 180.261ZM113.587 161.241L112.88 160.534L111.466 161.948L112.173 162.655L113.587 161.241ZM131.193 178.847L113.587 161.241L112.173 162.655L129.779 180.261L131.193 178.847Z" fill="#252A27" fill-opacity="0.05"/>
<line x1="106.09" y1="177.122" x2="111.878" y2="171.334" stroke="#252A27" stroke-opacity="0.05" stroke-width="2" stroke-linecap="round"/>
<path d="M118.917 177.771L112.692 171.546" stroke="#252A27" stroke-opacity="0.05" stroke-width="2" stroke-linecap="round"/>
<line x1="111.88" y1="177.856" x2="111.88" y2="173.065" stroke="#252A27" stroke-opacity="0.05" stroke-width="2" stroke-linecap="round"/>
<line x1="137.024" y1="164.58" x2="131.236" y2="170.368" stroke="#252A27" stroke-opacity="0.05" stroke-width="2" stroke-linecap="round"/>
<path d="M124.198 163.932L130.422 170.156" stroke="#252A27" stroke-opacity="0.05" stroke-width="2" stroke-linecap="round"/>
<line x1="131.234" y1="163.846" x2="131.234" y2="168.636" stroke="#252A27" stroke-opacity="0.05" stroke-width="2" stroke-linecap="round"/>
<path d="M130.422 179.587L148.028 161.981" stroke="#252A27" stroke-opacity="0.05" stroke-width="2" stroke-linecap="round"/>
<path d="M165.428 180.827C165.819 181.218 166.452 181.218 166.843 180.827C167.233 180.437 167.233 179.804 166.843 179.413L165.428 180.827ZM149.237 161.807L148.53 161.1L147.116 162.514L147.823 163.222L149.237 161.807ZM166.843 179.413L149.237 161.807L147.823 163.222L165.428 180.827L166.843 179.413Z" fill="#252A27" fill-opacity="0.05"/>
<line x1="141.74" y1="177.686" x2="147.528" y2="171.898" stroke="#252A27" stroke-opacity="0.05" stroke-width="2" stroke-linecap="round"/>
<path d="M154.566 178.335L148.342 172.11" stroke="#252A27" stroke-opacity="0.05" stroke-width="2" stroke-linecap="round"/>
<line x1="147.53" y1="178.421" x2="147.53" y2="173.63" stroke="#252A27" stroke-opacity="0.05" stroke-width="2" stroke-linecap="round"/>
<line x1="172.674" y1="165.145" x2="166.886" y2="170.933" stroke="#252A27" stroke-opacity="0.05" stroke-width="2" stroke-linecap="round"/>
<path d="M159.847 164.496L166.072 170.721" stroke="#252A27" stroke-opacity="0.05" stroke-width="2" stroke-linecap="round"/>
<line x1="166.884" y1="164.411" x2="166.884" y2="169.202" stroke="#252A27" stroke-opacity="0.05" stroke-width="2" stroke-linecap="round"/>
<line x1="208.89" y1="165.412" x2="203.102" y2="171.2" stroke="#252A27" stroke-opacity="0.05" stroke-width="2" stroke-linecap="round"/>
<path d="M196.063 164.764L202.288 170.988" stroke="#252A27" stroke-opacity="0.05" stroke-width="2" stroke-linecap="round"/>
<line x1="203.099" y1="164.679" x2="203.099" y2="169.469" stroke="#252A27" stroke-opacity="0.05" stroke-width="2" stroke-linecap="round"/>
<path d="M166.072 180.152L183.677 162.547" stroke="#252A27" stroke-opacity="0.05" stroke-width="2" stroke-linecap="round"/>
<path d="M201.078 181.393C201.469 181.783 202.102 181.783 202.492 181.393C202.883 181.002 202.883 180.369 202.492 179.978L201.078 181.393ZM184.887 162.373L184.179 161.666L182.765 163.08L183.472 163.787L184.887 162.373ZM202.492 179.978L184.887 162.373L183.472 163.787L201.078 181.393L202.492 179.978Z" fill="#252A27" fill-opacity="0.05"/>
<line x1="177.389" y1="178.253" x2="183.177" y2="172.465" stroke="#252A27" stroke-opacity="0.05" stroke-width="2" stroke-linecap="round"/>
<path d="M190.216 178.902L183.991 172.677" stroke="#252A27" stroke-opacity="0.05" stroke-width="2" stroke-linecap="round"/>
<line x1="183.18" y1="178.988" x2="183.18" y2="174.197" stroke="#252A27" stroke-opacity="0.05" stroke-width="2" stroke-linecap="round"/>
</g>
<path d="M385.014 191.451C385.014 191.451 394.819 201.974 394.492 203.281C394.166 204.589 385.667 213.741 385.667 213.741L374.881 215.375L373.403 228.104V240.024V253.104C373.403 253.104 372.822 258.52 370.632 259.174C368.441 259.828 361.173 257.867 361.173 257.867C361.173 257.867 356.25 250.349 355.884 248.945C355.517 247.541 361.173 240.024 361.173 240.024L353.239 232.093L344.645 230.111L337.042 225.815C337.042 225.815 328.794 226.488 327.456 225.815C326.117 225.143 324.811 220.529 324.811 220.529L314.895 228.128C314.895 228.128 307.02 228.459 306.631 227.137C306.241 225.815 308.283 191.451 308.283 191.451C308.283 191.451 301.338 189.553 301.011 188.808C300.684 188.063 307.711 181.539 308.283 181.539C308.856 181.539 313.059 181.369 313.572 181.539C314.085 181.709 317.87 188.808 317.87 188.808L331.092 178.895C331.092 178.895 327.113 173.278 328.117 173.278H347.95C347.95 173.278 354.537 168.03 355.884 169.313C357.231 170.595 361.173 175.261 361.173 175.261C361.173 175.261 369.437 167 371.42 167C373.403 167 381.998 172.038 381.998 173.278V178.895C381.998 178.895 387.628 183.016 388.282 183.343C388.936 183.67 385.014 185.504 385.014 185.504V191.451Z" fill="#EA3546" stroke="#252A27" stroke-width="3"/>
<mask id="mask1_10_2226" style="mask-type:alpha" maskUnits="userSpaceOnUse" x="299" y="165" width="98" height="96">
<path d="M385.014 191.451C385.014 191.451 394.819 201.974 394.492 203.281C394.166 204.589 385.667 213.741 385.667 213.741L374.881 215.375L373.403 228.104V240.024V253.104C373.403 253.104 372.822 258.52 370.632 259.174C368.441 259.828 361.173 257.867 361.173 257.867C361.173 257.867 356.25 250.349 355.884 248.945C355.517 247.541 361.173 240.024 361.173 240.024L353.239 232.093L344.645 230.111L337.042 225.815C337.042 225.815 328.794 226.488 327.456 225.815C326.117 225.143 324.811 220.529 324.811 220.529L314.895 228.128C314.895 228.128 307.02 228.459 306.631 227.137C306.241 225.815 308.283 191.451 308.283 191.451C308.283 191.451 301.338 189.553 301.011 188.808C300.684 188.063 307.711 181.539 308.283 181.539C308.856 181.539 313.059 181.369 313.572 181.539C314.085 181.709 317.87 188.808 317.87 188.808L331.092 178.895C331.092 178.895 327.113 173.278 328.117 173.278H347.95C347.95 173.278 354.537 168.03 355.884 169.313C357.231 170.595 361.173 175.261 361.173 175.261C361.173 175.261 369.437 167 371.42 167C373.403 167 381.998 172.038 381.998 173.278V178.895C381.998 178.895 387.628 183.016 388.282 183.343C388.936 183.67 385.014 185.504 385.014 185.504V191.451Z" fill="#EA3546" stroke="#252A27" stroke-width="3"/>
</mask>
<g mask="url(#mask1_10_2226)">
<path d="M315.289 189.447C315.628 189.786 316.177 189.786 316.516 189.447C316.854 189.108 316.854 188.559 316.516 188.221L315.289 189.447ZM298.53 170.235L297.917 169.621L296.69 170.848L297.303 171.461L298.53 170.235ZM316.516 188.221L298.53 170.235L297.303 171.461L315.289 189.447L316.516 188.221Z" fill="#252A27" fill-opacity="0.05"/>
<path d="M304.083 187.012L297.724 180.653" stroke="#252A27" stroke-opacity="0.05" stroke-width="1.73428" stroke-linecap="round"/>
<line x1="322.582" y1="173.318" x2="316.451" y2="179.45" stroke="#252A27" stroke-opacity="0.05" stroke-width="1.73428" stroke-linecap="round"/>
<path d="M309.479 172.874L315.838 179.233" stroke="#252A27" stroke-opacity="0.05" stroke-width="1.73428" stroke-linecap="round"/>
<line x1="316.512" y1="172.633" x2="316.512" y2="177.836" stroke="#252A27" stroke-opacity="0.05" stroke-width="1.73428" stroke-linecap="round"/>
<path d="M315.837 188.869L333.823 170.883" stroke="#252A27" stroke-opacity="0.05" stroke-width="1.73428" stroke-linecap="round"/>
<path d="M351.709 190.026C352.048 190.365 352.597 190.365 352.935 190.026C353.274 189.687 353.274 189.138 352.935 188.8L351.709 190.026ZM334.949 170.814L334.336 170.201L333.11 171.427L333.723 172.04L334.949 170.814ZM352.935 188.8L334.949 170.814L333.723 172.04L351.709 190.026L352.935 188.8Z" fill="#252A27" fill-opacity="0.05"/>
<line x1="327.399" y1="187.147" x2="333.531" y2="181.015" stroke="#252A27" stroke-opacity="0.05" stroke-width="1.73428" stroke-linecap="round"/>
<path d="M340.503 187.591L334.144 181.232" stroke="#252A27" stroke-opacity="0.05" stroke-width="1.73428" stroke-linecap="round"/>
<line x1="333.469" y1="187.833" x2="333.469" y2="182.63" stroke="#252A27" stroke-opacity="0.05" stroke-width="1.73428" stroke-linecap="round"/>
<line x1="359.002" y1="173.898" x2="352.87" y2="180.029" stroke="#252A27" stroke-opacity="0.05" stroke-width="1.73428" stroke-linecap="round"/>
<path d="M345.898 173.454L352.257 179.813" stroke="#252A27" stroke-opacity="0.05" stroke-width="1.73428" stroke-linecap="round"/>
<line x1="352.932" y1="173.211" x2="352.932" y2="178.414" stroke="#252A27" stroke-opacity="0.05" stroke-width="1.73428" stroke-linecap="round"/>
<line x1="396" y1="174.171" x2="389.868" y2="180.302" stroke="#252A27" stroke-opacity="0.05" stroke-width="1.73428" stroke-linecap="round"/>
<path d="M382.896 173.727L389.255 180.086" stroke="#252A27" stroke-opacity="0.05" stroke-width="1.73428" stroke-linecap="round"/>
<line x1="389.93" y1="173.484" x2="389.93" y2="178.687" stroke="#252A27" stroke-opacity="0.05" stroke-width="1.73428" stroke-linecap="round"/>
<path d="M352.257 189.447L370.243 171.461" stroke="#252A27" stroke-opacity="0.05" stroke-width="1.73428" stroke-linecap="round"/>
<path d="M388.129 190.604C388.468 190.943 389.017 190.943 389.355 190.604C389.694 190.265 389.694 189.716 389.355 189.378L388.129 190.604ZM371.369 171.392L370.756 170.779L369.53 172.005L370.143 172.618L371.369 171.392ZM389.355 189.378L371.369 171.392L370.143 172.618L388.129 190.604L389.355 189.378Z" fill="#252A27" fill-opacity="0.05"/>
<line x1="363.819" y1="187.724" x2="369.951" y2="181.593" stroke="#252A27" stroke-opacity="0.05" stroke-width="1.73428" stroke-linecap="round"/>
<path d="M376.923 188.168L370.564 181.809" stroke="#252A27" stroke-opacity="0.05" stroke-width="1.73428" stroke-linecap="round"/>
<line x1="369.889" y1="188.41" x2="369.889" y2="183.207" stroke="#252A27" stroke-opacity="0.05" stroke-width="1.73428" stroke-linecap="round"/>
<path d="M282.418 210.29L300.404 192.304" stroke="#252A27" stroke-opacity="0.05" stroke-width="1.73428" stroke-linecap="round"/>
<path d="M318.289 211.447C318.628 211.786 319.177 211.786 319.516 211.447C319.854 211.108 319.854 210.559 319.516 210.221L318.289 211.447ZM301.53 192.235L300.917 191.621L299.69 192.848L300.303 193.461L301.53 192.235ZM319.516 210.221L301.53 192.235L300.303 193.461L318.289 211.447L319.516 210.221Z" fill="#252A27" fill-opacity="0.05"/>
<line x1="293.979" y1="208.568" x2="300.111" y2="202.437" stroke="#252A27" stroke-opacity="0.05" stroke-width="1.73428" stroke-linecap="round"/>
<path d="M307.083 209.012L300.724 202.653" stroke="#252A27" stroke-opacity="0.05" stroke-width="1.73428" stroke-linecap="round"/>
<line x1="300.05" y1="209.254" x2="300.05" y2="204.051" stroke="#252A27" stroke-opacity="0.05" stroke-width="1.73428" stroke-linecap="round"/>
<line x1="325.582" y1="195.318" x2="319.451" y2="201.45" stroke="#252A27" stroke-opacity="0.05" stroke-width="1.73428" stroke-linecap="round"/>
<path d="M312.479 194.874L318.838 201.233" stroke="#252A27" stroke-opacity="0.05" stroke-width="1.73428" stroke-linecap="round"/>
<line x1="319.512" y1="194.633" x2="319.512" y2="199.836" stroke="#252A27" stroke-opacity="0.05" stroke-width="1.73428" stroke-linecap="round"/>
<path d="M318.837 210.869L336.823 192.883" stroke="#252A27" stroke-opacity="0.05" stroke-width="1.73428" stroke-linecap="round"/>
<path d="M354.709 212.026C355.048 212.365 355.597 212.365 355.935 212.026C356.274 211.687 356.274 211.138 355.935 210.8L354.709 212.026ZM337.949 192.814L337.336 192.201L336.11 193.427L336.723 194.04L337.949 192.814ZM355.935 210.8L337.949 192.814L336.723 194.04L354.709 212.026L355.935 210.8Z" fill="#252A27" fill-opacity="0.05"/>
<line x1="330.399" y1="209.147" x2="336.531" y2="203.015" stroke="#252A27" stroke-opacity="0.05" stroke-width="1.73428" stroke-linecap="round"/>
<path d="M343.503 209.591L337.144 203.232" stroke="#252A27" stroke-opacity="0.05" stroke-width="1.73428" stroke-linecap="round"/>
<line x1="336.469" y1="209.833" x2="336.469" y2="204.63" stroke="#252A27" stroke-opacity="0.05" stroke-width="1.73428" stroke-linecap="round"/>
<line x1="362.002" y1="195.898" x2="355.87" y2="202.029" stroke="#252A27" stroke-opacity="0.05" stroke-width="1.73428" stroke-linecap="round"/>
<path d="M348.898 195.454L355.257 201.813" stroke="#252A27" stroke-opacity="0.05" stroke-width="1.73428" stroke-linecap="round"/>
<line x1="355.932" y1="195.211" x2="355.932" y2="200.414" stroke="#252A27" stroke-opacity="0.05" stroke-width="1.73428" stroke-linecap="round"/>
<line x1="399" y1="196.171" x2="392.868" y2="202.302" stroke="#252A27" stroke-opacity="0.05" stroke-width="1.73428" stroke-linecap="round"/>
<path d="M385.896 195.727L392.255 202.086" stroke="#252A27" stroke-opacity="0.05" stroke-width="1.73428" stroke-linecap="round"/>
<line x1="392.93" y1="195.484" x2="392.93" y2="200.687" stroke="#252A27" stroke-opacity="0.05" stroke-width="1.73428" stroke-linecap="round"/>
<path d="M355.257 211.447L373.243 193.461" stroke="#252A27" stroke-opacity="0.05" stroke-width="1.73428" stroke-linecap="round"/>
<path d="M391.129 212.604C391.468 212.943 392.017 212.943 392.355 212.604C392.694 212.265 392.694 211.716 392.355 211.378L391.129 212.604ZM374.369 193.392L373.756 192.779L372.53 194.005L373.143 194.618L374.369 193.392ZM392.355 211.378L374.369 193.392L373.143 194.618L391.129 212.604L392.355 211.378Z" fill="#252A27" fill-opacity="0.05"/>
<line x1="366.819" y1="209.724" x2="372.951" y2="203.593" stroke="#252A27" stroke-opacity="0.05" stroke-width="1.73428" stroke-linecap="round"/>
<path d="M379.923 210.168L373.564 203.809" stroke="#252A27" stroke-opacity="0.05" stroke-width="1.73428" stroke-linecap="round"/>
<line x1="372.889" y1="210.41" x2="372.889" y2="205.207" stroke="#252A27" stroke-opacity="0.05" stroke-width="1.73428" stroke-linecap="round"/>
<path d="M282.418 232.29L300.404 214.304" stroke="#252A27" stroke-opacity="0.05" stroke-width="1.73428" stroke-linecap="round"/>
<path d="M318.289 233.447C318.628 233.786 319.177 233.786 319.516 233.447C319.854 233.108 319.854 232.559 319.516 232.221L318.289 233.447ZM301.53 214.235L300.917 213.621L299.69 214.848L300.303 215.461L301.53 214.235ZM319.516 232.221L301.53 214.235L300.303 215.461L318.289 233.447L319.516 232.221Z" fill="#252A27" fill-opacity="0.05"/>
<line x1="293.979" y1="230.568" x2="300.111" y2="224.437" stroke="#252A27" stroke-opacity="0.05" stroke-width="1.73428" stroke-linecap="round"/>
<path d="M307.083 231.012L300.724 224.653" stroke="#252A27" stroke-opacity="0.05" stroke-width="1.73428" stroke-linecap="round"/>
<line x1="300.05" y1="231.254" x2="300.05" y2="226.051" stroke="#252A27" stroke-opacity="0.05" stroke-width="1.73428" stroke-linecap="round"/>
<line x1="325.582" y1="217.318" x2="319.451" y2="223.45" stroke="#252A27" stroke-opacity="0.05" stroke-width="1.73428" stroke-linecap="round"/>
<path d="M312.479 216.874L318.838 223.233" stroke="#252A27" stroke-opacity="0.05" stroke-width="1.73428" stroke-linecap="round"/>
<line x1="319.512" y1="216.633" x2="319.512" y2="221.836" stroke="#252A27" stroke-opacity="0.05" stroke-width="1.73428" stroke-linecap="round"/>
<path d="M318.837 232.869L336.823 214.883" stroke="#252A27" stroke-opacity="0.05" stroke-width="1.73428" stroke-linecap="round"/>
<path d="M354.709 234.026C355.048 234.365 355.597 234.365 355.935 234.026C356.274 233.687 356.274 233.138 355.935 232.8L354.709 234.026ZM337.949 214.814L337.336 214.201L336.11 215.427L336.723 216.04L337.949 214.814ZM355.935 232.8L337.949 214.814L336.723 216.04L354.709 234.026L355.935 232.8Z" fill="#252A27" fill-opacity="0.05"/>
<line x1="330.399" y1="231.147" x2="336.531" y2="225.015" stroke="#252A27" stroke-opacity="0.05" stroke-width="1.73428" stroke-linecap="round"/>
<path d="M343.503 231.591L337.144 225.232" stroke="#252A27" stroke-opacity="0.05" stroke-width="1.73428" stroke-linecap="round"/>
<line x1="336.469" y1="231.833" x2="336.469" y2="226.63" stroke="#252A27" stroke-opacity="0.05" stroke-width="1.73428" stroke-linecap="round"/>
<line x1="362.002" y1="217.898" x2="355.87" y2="224.029" stroke="#252A27" stroke-opacity="0.05" stroke-width="1.73428" stroke-linecap="round"/>
<path d="M348.898 217.454L355.257 223.813" stroke="#252A27" stroke-opacity="0.05" stroke-width="1.73428" stroke-linecap="round"/>
<line x1="355.932" y1="217.211" x2="355.932" y2="222.414" stroke="#252A27" stroke-opacity="0.05" stroke-width="1.73428" stroke-linecap="round"/>
<line x1="399" y1="218.171" x2="392.868" y2="224.302" stroke="#252A27" stroke-opacity="0.05" stroke-width="1.73428" stroke-linecap="round"/>
<path d="M385.896 217.727L392.255 224.086" stroke="#252A27" stroke-opacity="0.05" stroke-width="1.73428" stroke-linecap="round"/>
<line x1="392.93" y1="217.484" x2="392.93" y2="222.687" stroke="#252A27" stroke-opacity="0.05" stroke-width="1.73428" stroke-linecap="round"/>
<path d="M355.257 233.447L373.243 215.461" stroke="#252A27" stroke-opacity="0.05" stroke-width="1.73428" stroke-linecap="round"/>
<path d="M391.129 234.604C391.468 234.943 392.017 234.943 392.355 234.604C392.694 234.265 392.694 233.716 392.355 233.378L391.129 234.604ZM374.369 215.392L373.756 214.779L372.53 216.005L373.143 216.618L374.369 215.392ZM392.355 233.378L374.369 215.392L373.143 216.618L391.129 234.604L392.355 233.378Z" fill="#252A27" fill-opacity="0.05"/>
<line x1="366.819" y1="231.724" x2="372.951" y2="225.593" stroke="#252A27" stroke-opacity="0.05" stroke-width="1.73428" stroke-linecap="round"/>
<path d="M379.923 232.168L373.564 225.809" stroke="#252A27" stroke-opacity="0.05" stroke-width="1.73428" stroke-linecap="round"/>
<line x1="372.889" y1="232.41" x2="372.889" y2="227.207" stroke="#252A27" stroke-opacity="0.05" stroke-width="1.73428" stroke-linecap="round"/>
<path d="M282.418 254.29L300.404 236.304" stroke="#252A27" stroke-opacity="0.05" stroke-width="1.73428" stroke-linecap="round"/>
<path d="M318.289 255.447C318.628 255.786 319.177 255.786 319.516 255.447C319.854 255.108 319.854 254.559 319.516 254.221L318.289 255.447ZM301.53 236.235L300.917 235.621L299.69 236.848L300.303 237.461L301.53 236.235ZM319.516 254.221L301.53 236.235L300.303 237.461L318.289 255.447L319.516 254.221Z" fill="#252A27" fill-opacity="0.05"/>
<line x1="293.979" y1="252.568" x2="300.111" y2="246.437" stroke="#252A27" stroke-opacity="0.05" stroke-width="1.73428" stroke-linecap="round"/>
<path d="M307.083 253.012L300.724 246.653" stroke="#252A27" stroke-opacity="0.05" stroke-width="1.73428" stroke-linecap="round"/>
<line x1="300.05" y1="253.254" x2="300.05" y2="248.051" stroke="#252A27" stroke-opacity="0.05" stroke-width="1.73428" stroke-linecap="round"/>
<line x1="325.582" y1="239.318" x2="319.451" y2="245.45" stroke="#252A27" stroke-opacity="0.05" stroke-width="1.73428" stroke-linecap="round"/>
<path d="M312.479 238.874L318.838 245.233" stroke="#252A27" stroke-opacity="0.05" stroke-width="1.73428" stroke-linecap="round"/>
<line x1="319.512" y1="238.633" x2="319.512" y2="243.836" stroke="#252A27" stroke-opacity="0.05" stroke-width="1.73428" stroke-linecap="round"/>
<path d="M318.837 254.869L336.823 236.883" stroke="#252A27" stroke-opacity="0.05" stroke-width="1.73428" stroke-linecap="round"/>
<path d="M354.709 256.026C355.048 256.365 355.597 256.365 355.935 256.026C356.274 255.687 356.274 255.138 355.935 254.8L354.709 256.026ZM337.949 236.814L337.336 236.201L336.11 237.427L336.723 238.04L337.949 236.814ZM355.935 254.8L337.949 236.814L336.723 238.04L354.709 256.026L355.935 254.8Z" fill="#252A27" fill-opacity="0.05"/>
<line x1="330.399" y1="253.147" x2="336.531" y2="247.015" stroke="#252A27" stroke-opacity="0.05" stroke-width="1.73428" stroke-linecap="round"/>
<path d="M343.503 253.591L337.144 247.232" stroke="#252A27" stroke-opacity="0.05" stroke-width="1.73428" stroke-linecap="round"/>
<line x1="336.469" y1="253.833" x2="336.469" y2="248.63" stroke="#252A27" stroke-opacity="0.05" stroke-width="1.73428" stroke-linecap="round"/>
<line x1="362.002" y1="239.898" x2="355.87" y2="246.029" stroke="#252A27" stroke-opacity="0.05" stroke-width="1.73428" stroke-linecap="round"/>
<path d="M348.898 239.454L355.257 245.813" stroke="#252A27" stroke-opacity="0.05" stroke-width="1.73428" stroke-linecap="round"/>
<line x1="355.932" y1="239.211" x2="355.932" y2="244.414" stroke="#252A27" stroke-opacity="0.05" stroke-width="1.73428" stroke-linecap="round"/>
<line x1="399" y1="240.171" x2="392.868" y2="246.302" stroke="#252A27" stroke-opacity="0.05" stroke-width="1.73428" stroke-linecap="round"/>
<path d="M385.896 239.727L392.255 246.086" stroke="#252A27" stroke-opacity="0.05" stroke-width="1.73428" stroke-linecap="round"/>
<line x1="392.93" y1="239.484" x2="392.93" y2="244.687" stroke="#252A27" stroke-opacity="0.05" stroke-width="1.73428" stroke-linecap="round"/>
<path d="M355.257 255.447L373.243 237.461" stroke="#252A27" stroke-opacity="0.05" stroke-width="1.73428" stroke-linecap="round"/>
<path d="M391.129 256.604C391.468 256.943 392.017 256.943 392.355 256.604C392.694 256.265 392.694 255.716 392.355 255.378L391.129 256.604ZM374.369 237.392L373.756 236.779L372.53 238.005L373.143 238.618L374.369 237.392ZM392.355 255.378L374.369 237.392L373.143 238.618L391.129 256.604L392.355 255.378Z" fill="#252A27" fill-opacity="0.05"/>
<line x1="366.819" y1="253.724" x2="372.951" y2="247.593" stroke="#252A27" stroke-opacity="0.05" stroke-width="1.73428" stroke-linecap="round"/>
<path d="M379.923 254.168L373.564 247.809" stroke="#252A27" stroke-opacity="0.05" stroke-width="1.73428" stroke-linecap="round"/>
<line x1="372.889" y1="254.41" x2="372.889" y2="249.207" stroke="#252A27" stroke-opacity="0.05" stroke-width="1.73428" stroke-linecap="round"/>
</g>
<path d="M362.887 155.833C362.284 155.199 359.034 115.004 358.984 114.224C358.935 113.445 362.495 115.184 364.899 115.649C369.142 116.468 372.256 117.433 376.012 119.571C377.34 120.327 378.316 120.715 379.608 121.532C380.899 122.35 381.546 123.721 382.876 124.474C387.037 126.829 391.701 132.35 392.355 134.28L378.609 149.819L381.724 160.353C381.724 160.353 377.647 164.024 377.32 163.043C376.993 162.063 372.09 158.467 370.453 156.45C368.815 154.432 363.49 156.468 362.887 155.833Z" fill="#EA3546" stroke="#252A27" stroke-width="3"/>
<mask id="mask2_10_2226" style="mask-type:alpha" maskUnits="userSpaceOnUse" x="357" y="112" width="37" height="53">
<path d="M362.747 155.833C362.145 155.199 358.894 115.004 358.845 114.224C358.795 113.445 362.355 115.184 364.759 115.649C369.002 116.468 372.116 117.433 375.873 119.571C377.201 120.327 378.177 120.715 379.468 121.532C380.759 122.35 381.407 123.721 382.737 124.474C386.898 126.829 391.561 132.35 392.215 134.28L378.469 149.819L381.584 160.353C381.584 160.353 377.507 164.024 377.18 163.043C376.853 162.063 371.95 158.467 370.313 156.45C368.676 154.432 363.35 156.468 362.747 155.833Z" fill="#EA3546" stroke="#252A27" stroke-width="3"/>
</mask>
<g mask="url(#mask2_10_2226)">
<line x1="361.862" y1="106.898" x2="355.731" y2="113.029" stroke="#252A27" stroke-opacity="0.05" stroke-width="1.73428" stroke-linecap="round"/>
<line x1="398.86" y1="107.171" x2="392.729" y2="113.302" stroke="#252A27" stroke-opacity="0.05" stroke-width="1.73428" stroke-linecap="round"/>
<path d="M385.757 106.727L392.116 113.086" stroke="#252A27" stroke-opacity="0.05" stroke-width="1.73428" stroke-linecap="round"/>
<line x1="392.79" y1="106.484" x2="392.79" y2="111.687" stroke="#252A27" stroke-opacity="0.05" stroke-width="1.73428" stroke-linecap="round"/>
<path d="M355.118 122.447L373.104 104.461" stroke="#252A27" stroke-opacity="0.05" stroke-width="1.73428" stroke-linecap="round"/>
<path d="M390.989 123.604C391.328 123.943 391.877 123.943 392.216 123.604C392.554 123.265 392.554 122.716 392.216 122.378L390.989 123.604ZM374.23 104.392L373.617 103.779L372.39 105.005L373.003 105.618L374.23 104.392ZM392.216 122.378L374.23 104.392L373.003 105.618L390.989 123.604L392.216 122.378Z" fill="#252A27" fill-opacity="0.05"/>
<line x1="366.68" y1="120.724" x2="372.811" y2="114.593" stroke="#252A27" stroke-opacity="0.05" stroke-width="1.73428" stroke-linecap="round"/>
<path d="M379.783 121.168L373.424 114.809" stroke="#252A27" stroke-opacity="0.05" stroke-width="1.73428" stroke-linecap="round"/>
<line x1="372.75" y1="121.41" x2="372.75" y2="116.207" stroke="#252A27" stroke-opacity="0.05" stroke-width="1.73428" stroke-linecap="round"/>
<path d="M357.569 145.026C357.908 145.365 358.457 145.365 358.796 145.026C359.134 144.687 359.134 144.138 358.796 143.8L357.569 145.026ZM340.81 125.814L340.197 125.201L338.97 126.427L339.583 127.04L340.81 125.814ZM358.796 143.8L340.81 125.814L339.583 127.04L357.569 145.026L358.796 143.8Z" fill="#252A27" fill-opacity="0.05"/>
<line x1="364.862" y1="128.898" x2="358.731" y2="135.029" stroke="#252A27" stroke-opacity="0.05" stroke-width="1.73428" stroke-linecap="round"/>
<path d="M351.759 128.454L358.118 134.813" stroke="#252A27" stroke-opacity="0.05" stroke-width="1.73428" stroke-linecap="round"/>
<line x1="358.792" y1="128.211" x2="358.792" y2="133.414" stroke="#252A27" stroke-opacity="0.05" stroke-width="1.73428" stroke-linecap="round"/>
<path d="M388.757 128.727L395.116 135.086" stroke="#252A27" stroke-opacity="0.05" stroke-width="1.73428" stroke-linecap="round"/>
<path d="M358.118 144.447L376.104 126.461" stroke="#252A27" stroke-opacity="0.05" stroke-width="1.73428" stroke-linecap="round"/>
<path d="M393.989 145.604C394.328 145.943 394.877 145.943 395.216 145.604C395.554 145.265 395.554 144.716 395.216 144.378L393.989 145.604ZM377.23 126.392L376.617 125.779L375.39 127.005L376.003 127.618L377.23 126.392ZM395.216 144.378L377.23 126.392L376.003 127.618L393.989 145.604L395.216 144.378Z" fill="#252A27" fill-opacity="0.05"/>
<line x1="369.68" y1="142.724" x2="375.811" y2="136.593" stroke="#252A27" stroke-opacity="0.05" stroke-width="1.73428" stroke-linecap="round"/>
<path d="M382.783 143.168L376.424 136.809" stroke="#252A27" stroke-opacity="0.05" stroke-width="1.73428" stroke-linecap="round"/>
<line x1="375.75" y1="143.41" x2="375.75" y2="138.207" stroke="#252A27" stroke-opacity="0.05" stroke-width="1.73428" stroke-linecap="round"/>
<path d="M357.569 167.026C357.908 167.365 358.457 167.365 358.796 167.026C359.134 166.687 359.134 166.138 358.796 165.8L357.569 167.026ZM340.81 147.814L340.197 147.201L338.97 148.427L339.583 149.04L340.81 147.814ZM358.796 165.8L340.81 147.814L339.583 149.04L357.569 167.026L358.796 165.8Z" fill="#252A27" fill-opacity="0.05"/>
<line x1="364.862" y1="150.898" x2="358.731" y2="157.029" stroke="#252A27" stroke-opacity="0.05" stroke-width="1.73428" stroke-linecap="round"/>
<path d="M351.759 150.454L358.118 156.813" stroke="#252A27" stroke-opacity="0.05" stroke-width="1.73428" stroke-linecap="round"/>
<line x1="358.792" y1="150.211" x2="358.792" y2="155.414" stroke="#252A27" stroke-opacity="0.05" stroke-width="1.73428" stroke-linecap="round"/>
<path d="M388.757 150.727L395.116 157.086" stroke="#252A27" stroke-opacity="0.05" stroke-width="1.73428" stroke-linecap="round"/>
<path d="M358.118 166.447L376.104 148.461" stroke="#252A27" stroke-opacity="0.05" stroke-width="1.73428" stroke-linecap="round"/>
<path d="M393.989 167.604C394.328 167.943 394.877 167.943 395.216 167.604C395.554 167.265 395.554 166.716 395.216 166.378L393.989 167.604ZM377.23 148.392L376.617 147.779L375.39 149.005L376.003 149.618L377.23 148.392ZM395.216 166.378L377.23 148.392L376.003 149.618L393.989 167.604L395.216 166.378Z" fill="#252A27" fill-opacity="0.05"/>
<line x1="369.68" y1="164.724" x2="375.811" y2="158.593" stroke="#252A27" stroke-opacity="0.05" stroke-width="1.73428" stroke-linecap="round"/>
<path d="M382.783 165.168L376.424 158.809" stroke="#252A27" stroke-opacity="0.05" stroke-width="1.73428" stroke-linecap="round"/>
<line x1="375.75" y1="165.41" x2="375.75" y2="160.207" stroke="#252A27" stroke-opacity="0.05" stroke-width="1.73428" stroke-linecap="round"/>
</g>
<defs>
<filter id="filter0_d_10_2226" x="0.5" y="0" width="449.702" height="448.681" filterUnits="userSpaceOnUse" color-interpolation-filters="sRGB">
<feFlood flood-opacity="0" result="BackgroundImageFix"/>
<feColorMatrix in="SourceAlpha" type="matrix" values="0 0 0 0 0 0 0 0 0 0 0 0 0 0 0 0 0 0 127 0" result="hardAlpha"/>
<feOffset dy="2"/>
<feGaussianBlur stdDeviation="15"/>
<feComposite in2="hardAlpha" operator="out"/>
<feColorMatrix type="matrix" values="0 0 0 0 0.145098 0 0 0 0 0.164706 0 0 0 0 0.152941 0 0 0 0.35 0"/>
<feBlend mode="normal" in2="BackgroundImageFix" result="effect1_dropShadow_10_2226"/>
<feBlend mode="normal" in="SourceGraphic" in2="effect1_dropShadow_10_2226" result="shape"/>
</filter>
</defs>
</svg>
