<svg width="25" height="23" viewBox="0 0 25 23" fill="none" xmlns="http://www.w3.org/2000/svg">
<path d="M7 21.5714V5.28572M17.2857 21.5714V5.28572M7.85714 5.28572C7.85714 4.14907 8.30867 3.05898 9.1124 2.25526C9.91613 1.45153 11.0062 1 12.1429 1C13.2795 1 14.3696 1.45153 15.1733 2.25526C15.977 3.05898 16.4286 4.14907 16.4286 5.28572M4.42857 5.28572H19.8571C21.7507 5.28572 23.2857 6.82074 23.2857 8.71429V18.1429C23.2857 20.0364 21.7507 21.5714 19.8571 21.5714H4.42857C2.53502 21.5714 1 20.0364 1 18.1429V8.71429C1 6.82074 2.53502 5.28572 4.42857 5.28572Z" stroke="#ACAEAD" stroke-width="2" stroke-linecap="round" stroke-linejoin="round"/>
</svg>
