<svg width="20" height="20" viewBox="0 0 20 20" fill="none" xmlns="http://www.w3.org/2000/svg">
<path d="M10 11.43C11.9724 11.43 13.5714 9.83098 13.5714 7.85854C13.5714 5.88609 11.9724 4.28711 10 4.28711C8.02756 4.28711 6.42857 5.88609 6.42857 7.85854C6.42857 9.83098 8.02756 11.43 10 11.43Z" stroke="#252A27" stroke-width="1.2" stroke-linecap="round" stroke-linejoin="round"/>
<path d="M3.89997 17.0008C4.53746 15.9544 5.43341 15.0896 6.5017 14.4895C7.56998 13.8894 8.77467 13.5742 9.99997 13.5742C11.2253 13.5742 12.43 13.8894 13.4982 14.4895C14.5665 15.0896 15.4625 15.9544 16.1 17.0008" stroke="#252A27" stroke-width="1.2" stroke-linecap="round" stroke-linejoin="round"/>
<path d="M10 19.2863C15.1284 19.2863 19.2857 15.1289 19.2857 10.0006C19.2857 4.8722 15.1284 0.714844 10 0.714844C4.87164 0.714844 0.714287 4.8722 0.714287 10.0006C0.714287 15.1289 4.87164 19.2863 10 19.2863Z" stroke="#252A27" stroke-width="1.2" stroke-linecap="round" stroke-linejoin="round"/>
</svg>
