<svg width="16" height="18" viewBox="0 0 16 18" fill="none" xmlns="http://www.w3.org/2000/svg">
<path d="M10.5716 16.4289H6.00014L5.42871 11.8574H11.143L10.5716 16.4289Z" stroke="#252A27" stroke-width="1.6" stroke-linecap="round" stroke-linejoin="round"/>
<path d="M13.8631 7.93667C13.6294 8.14002 13.3569 8.29378 13.0621 8.38859C12.7672 8.4834 12.4562 8.5173 12.1478 8.48822C11.8394 8.45915 11.5402 8.36771 11.2683 8.21945C10.9963 8.07119 10.7574 7.86921 10.5659 7.62578C10.3744 7.38234 10.2344 7.10252 10.1543 6.80332C10.0743 6.50411 10.0559 6.19176 10.1002 5.88523C10.1446 5.5787 10.2508 5.28438 10.4124 5.02014C10.574 4.7559 10.7876 4.52726 11.0402 4.3481C12.0231 3.57096 15.1431 4.0281 15.1431 4.0281C15.1431 4.0281 14.8574 7.15953 13.8631 7.93667Z" stroke="#252A27" stroke-width="1.6" stroke-linecap="round" stroke-linejoin="round"/>
<path d="M10.5715 7.44683C9.91074 7.98824 9.36727 8.65865 8.97428 9.41712C8.58129 10.1756 8.34702 11.0062 8.28578 11.8583C8.28578 8.42969 6.5715 6.14397 3.71436 4.42969" stroke="#252A27" stroke-width="1.6" stroke-linecap="round" stroke-linejoin="round"/>
<path d="M1.90864 6.71445C2.46819 7.19504 3.18862 7.44654 3.92571 7.41861C4.66279 7.39067 5.36212 7.08535 5.88369 6.56378C6.40526 6.04221 6.71058 5.34288 6.73851 4.6058C6.76645 3.86872 6.51494 3.14828 6.03435 2.58873C4.89149 1.4573 0.857208 1.57159 0.857208 1.57159C0.857208 1.57159 0.76578 5.57159 1.90864 6.71445Z" stroke="#252A27" stroke-width="1.6" stroke-linecap="round" stroke-linejoin="round"/>
</svg>
