<svg width="20" height="20" viewBox="0 0 20 20" fill="none" xmlns="http://www.w3.org/2000/svg">
<path d="M13.9355 11.7168C13.7226 11.6074 12.6621 11.0879 12.4648 11.0176C12.2676 10.9434 12.123 10.9082 11.9805 11.127C11.8359 11.3438 11.4258 11.8262 11.2969 11.9727C11.1719 12.1172 11.0449 12.1348 10.832 12.0273C9.56639 11.3945 8.73632 10.8984 7.90234 9.4668C7.68163 9.08594 8.12304 9.11328 8.53515 8.29102C8.60546 8.14648 8.5703 8.02344 8.51562 7.91406C8.46093 7.80469 8.03124 6.74609 7.85156 6.31445C7.67773 5.89453 7.49804 5.95312 7.36718 5.94531C7.24218 5.9375 7.09961 5.9375 6.95507 5.9375C6.81054 5.9375 6.57812 5.99219 6.38086 6.20508C6.18359 6.42188 5.62695 6.94336 5.62695 8.00195C5.62695 9.06055 6.39844 10.0859 6.5039 10.2305C6.61328 10.375 8.02148 12.5469 10.1836 13.4824C11.5508 14.0723 12.0859 14.123 12.7695 14.0215C13.1855 13.959 14.0429 13.502 14.2207 12.9961C14.3984 12.4922 14.3984 12.0605 14.3457 11.9707C14.2929 11.875 14.1484 11.8203 13.9355 11.7168Z" fill="#252A27"/>
<path d="M18.0703 6.60938C17.6289 5.56055 16.9961 4.61914 16.1895 3.81055C15.3828 3.00391 14.4414 2.36914 13.3906 1.92969C12.3164 1.47852 11.1758 1.25 10 1.25H9.96094C8.77734 1.25586 7.63086 1.49023 6.55273 1.95117C5.51172 2.39648 4.57812 3.0293 3.77929 3.83594C2.98047 4.64258 2.35351 5.58008 1.91992 6.625C1.4707 7.70703 1.24414 8.85742 1.25 10.041C1.25586 11.3965 1.58007 12.7422 2.1875 13.9453V16.9141C2.1875 17.4102 2.58984 17.8125 3.08593 17.8125H6.05664C7.25976 18.4199 8.60547 18.7441 9.96094 18.75H10.002C11.1719 18.75 12.3066 18.5234 13.375 18.0801C14.4199 17.6445 15.3594 17.0195 16.1641 16.2207C16.9707 15.4219 17.6055 14.4883 18.0488 13.4473C18.5098 12.3691 18.7441 11.2227 18.75 10.0391C18.7559 8.84961 18.5254 7.69531 18.0703 6.60938ZM15.1191 15.1641C13.75 16.5195 11.9336 17.2656 10 17.2656H9.96679C8.78906 17.2598 7.61914 16.9668 6.58594 16.416L6.42187 16.3281H3.67187V13.5781L3.58398 13.4141C3.0332 12.3809 2.74023 11.2109 2.73437 10.0332C2.72656 8.08594 3.4707 6.25781 4.83593 4.88086C6.19922 3.50391 8.02148 2.74219 9.96875 2.73438H10.002C10.9785 2.73438 11.9258 2.92383 12.8184 3.29883C13.6895 3.66406 14.4707 4.18945 15.1426 4.86133C15.8125 5.53125 16.3398 6.31445 16.7051 7.18555C17.084 8.08789 17.2734 9.04492 17.2695 10.0332C17.2578 11.9785 16.4941 13.8008 15.1191 15.1641Z" fill="#252A27"/>
</svg>
