<svg viewBox="0 0 251 251" fill="none" xmlns="http://www.w3.org/2000/svg">
<path d="M174.432 147.203C171.771 145.835 158.515 139.342 156.049 138.463C153.583 137.535 151.777 137.096 149.995 139.83C148.188 142.54 143.061 148.57 141.45 150.401C139.888 152.207 138.301 152.427 135.64 151.084C119.82 143.174 109.444 136.973 99.0199 119.079C96.2612 114.318 101.779 114.66 106.93 104.382C107.809 102.575 107.369 101.037 106.686 99.67C106.002 98.3029 100.631 85.0709 98.3852 79.6756C96.2124 74.4268 93.9664 75.1592 92.3307 75.0615C90.7683 74.9639 88.9861 74.9639 87.1796 74.9639C85.373 74.9639 82.4678 75.6474 80.0021 78.3085C77.5364 81.0183 70.5786 87.5367 70.5786 100.769C70.5786 114.001 80.2218 126.818 81.5401 128.624C82.9073 130.431 100.509 157.578 127.534 169.272C144.624 176.645 151.313 177.28 159.857 176.01C165.057 175.229 175.775 169.516 177.996 163.193C180.218 156.895 180.218 151.499 179.559 150.376C178.9 149.18 177.093 148.496 174.432 147.203Z" fill="#EA3546"/>
<path d="M226.115 83.3629C220.598 70.253 212.688 58.4859 202.605 48.3788C192.523 38.2961 180.755 30.3618 167.621 24.8688C154.194 19.2294 139.937 16.373 125.24 16.373H124.752C109.957 16.4463 95.6266 19.3759 82.1505 25.1374C69.1382 30.7036 57.4687 38.6135 47.4837 48.6961C37.4987 58.7788 29.662 70.4972 24.2423 83.5582C18.6273 97.0832 15.7953 111.463 15.8686 126.257C15.9418 143.2 19.9944 160.02 27.5869 175.059V212.167C27.5869 218.368 32.616 223.397 38.817 223.397H75.9495C90.9881 230.99 107.809 235.042 124.752 235.115H125.264C139.888 235.115 154.072 232.284 167.426 226.742C180.487 221.298 192.23 213.485 202.288 203.5C212.371 193.515 220.305 181.846 225.847 168.834C231.608 155.358 234.538 141.027 234.611 126.233C234.684 111.365 231.804 96.9367 226.115 83.3629V83.3629ZM189.227 190.293C172.113 207.236 149.409 216.561 125.24 216.561H124.825C110.104 216.488 95.4801 212.826 82.5655 205.942L80.5148 204.843H46.141V170.469L45.0424 168.419C38.1578 155.504 34.4959 140.88 34.4226 126.159C34.325 101.819 43.6264 78.9685 60.6913 61.7572C77.7317 44.5459 100.509 35.0247 124.849 34.9271H125.264C137.471 34.9271 149.311 37.2952 160.468 41.9825C171.356 46.5478 181.122 53.1149 189.52 61.5131C197.894 69.8868 204.485 79.6765 209.05 90.5648C213.787 101.844 216.155 113.806 216.106 126.159C215.959 150.475 206.414 173.252 189.227 190.293V190.293Z" fill="#EA3546"/>
</svg>
